<?xml version="1.0" standalone="no"?>
<!DOCTYPE svg PUBLIC "-//W3C//DTD SVG 20010904//EN"
 "http://www.w3.org/TR/2001/REC-SVG-20010904/DTD/svg10.dtd">
<svg version="1.0" xmlns="http://www.w3.org/2000/svg"
 width="512.000000pt" height="512.000000pt" viewBox="0 0 512.000000 512.000000"
 preserveAspectRatio="xMidYMid meet">
<metadata>
Created by potrace 1.16, written by Peter Selinger 2001-2019
</metadata>
<g transform="translate(0.000000,512.000000) scale(0.100000,-0.100000)"
fill="#000000" stroke="none">
<path d="M3932 4432 c-28 -11 -60 -26 -70 -35 -10 -10 -34 -17 -52 -17 -21 0
-43 -8 -57 -22 -15 -14 -43 -24 -79 -29 -108 -15 -72 -24 87 -23 107 1 164 5
171 12 9 9 139 12 478 13 256 1 494 5 530 9 36 4 -179 8 -477 8 -352 1 -544
-2 -548 -8 -3 -5 -43 -10 -88 -10 -73 0 -79 1 -61 15 10 8 33 15 51 15 18 0
48 11 68 24 81 55 263 61 351 12 l49 -27 210 1 c115 1 239 5 275 9 45 6 -19 9
-203 10 l-268 1 -52 27 c-45 23 -66 27 -157 30 -83 3 -116 0 -158 -15z"/>
<path d="M1720 4394 c-33 -14 -90 -61 -90 -73 0 -3 97 -6 215 -6 118 0 215 1
215 1 0 1 -30 7 -67 14 -43 8 -77 21 -93 35 -54 48 -113 58 -180 29z m140 -19
c52 -27 35 -35 -76 -35 -110 0 -124 8 -60 36 42 18 100 17 136 -1z"/>
<path d="M786 4296 c-37 -19 -72 -26 -154 -31 -163 -11 -165 -23 -4 -19 125 3
147 6 169 24 54 42 180 22 217 -34 l14 -23 -321 3 c-196 1 -297 -1 -257 -6 36
-4 247 -8 470 -7 228 0 381 3 350 7 -30 5 -92 8 -136 9 -76 1 -83 3 -99 27
-22 34 -109 74 -161 74 -23 0 -61 -10 -88 -24z"/>
<path d="M2910 4283 c-8 -4 -33 -21 -54 -40 -25 -21 -51 -33 -70 -34 -17 0
-40 -4 -51 -9 -12 -5 94 -9 258 -9 267 -1 348 9 195 23 -49 4 -79 12 -93 25
-48 44 -133 64 -185 44z m130 -31 c62 -34 50 -42 -64 -42 -65 0 -106 4 -106
10 0 18 64 50 100 50 19 0 51 -8 70 -18z"/>
<path d="M2537 4194 c-15 -15 -6 -101 17 -168 35 -104 41 -154 7 -62 -18 48
-41 91 -61 110 l-31 31 -19 -22 c-21 -26 -32 -28 -59 -11 -24 15 -51 4 -51
-21 0 -25 44 -77 81 -97 16 -8 29 -11 29 -7 0 4 12 -6 28 -22 15 -17 49 -48
75 -69 44 -36 77 -76 62 -76 -3 0 -27 20 -53 44 -58 54 -204 130 -232 121 -11
-4 -20 -2 -20 4 0 6 -7 11 -15 11 -8 0 -15 -9 -15 -20 0 -11 -6 -20 -14 -20
-20 0 -37 -25 -30 -43 6 -16 72 -52 81 -44 2 3 -8 11 -23 19 -33 15 -42 36
-20 44 16 6 146 -74 146 -90 0 -5 -23 -5 -52 -1 -29 4 -85 8 -125 9 -43 1 -77
6 -84 14 -7 6 -22 12 -34 12 -11 0 -26 9 -33 21 -9 14 -20 19 -33 16 -16 -4
-19 0 -19 28 0 18 -7 38 -15 45 -20 17 -49 9 -53 -15 -2 -11 -6 -27 -9 -35 -4
-8 -7 -28 -8 -43 -2 -15 -4 -29 -6 -31 -2 -2 -43 -6 -91 -10 -81 -6 -88 -5
-98 14 -6 11 -19 20 -29 20 -11 0 -22 7 -25 16 -5 12 -16 14 -51 10 -39 -4
-45 -2 -45 15 0 10 -4 19 -8 19 -4 0 -8 15 -9 34 -1 18 -9 48 -18 66 l-17 33
-19 -24 c-10 -13 -19 -30 -19 -37 0 -8 -7 -39 -16 -69 -14 -49 -18 -54 -39
-49 -14 4 -25 1 -28 -7 -3 -9 -16 -12 -35 -9 -24 3 -34 -1 -47 -22 -13 -20
-26 -26 -51 -26 -31 0 -34 3 -34 29 0 23 -6 32 -32 42 -18 7 -36 14 -39 16
-13 7 -39 -29 -39 -53 0 -22 -4 -24 -42 -24 -38 1 -41 2 -25 14 21 16 22 35 1
64 -12 17 -24 22 -47 20 -27 -3 -33 -8 -39 -38 -5 -19 -10 -42 -12 -50 -2 -8
-10 -13 -17 -11 -8 2 -42 4 -76 4 -58 0 -62 1 -61 21 2 29 -38 112 -58 120
-21 8 -74 -30 -74 -54 0 -10 -5 -22 -11 -25 -6 -4 -7 -19 -4 -35 5 -24 3 -29
-17 -32 -13 -2 -32 4 -44 14 -26 23 -52 15 -60 -18 l-6 -24 -163 0 c-89 0
-217 -3 -283 -7 -110 -5 -122 -8 -122 -25 0 -16 9 -18 103 -17 56 0 181 4 277
9 96 5 438 14 760 19 322 6 718 13 880 17 250 5 293 4 282 -7 -10 -11 -78 -15
-310 -20 -163 -4 -346 -12 -406 -19 -59 -7 -121 -9 -136 -6 -16 3 -30 1 -32
-3 -2 -5 -95 -21 -208 -35 -251 -33 -391 -57 -384 -67 9 -15 -19 -21 -42 -9
-18 10 -26 10 -38 1 -8 -7 -24 -10 -36 -6 -14 4 -20 2 -20 -8 0 -17 -145 -43
-185 -33 -16 4 -34 1 -48 -9 -25 -18 -41 -20 -31 -4 5 8 1 8 -14 0 -11 -6 -22
-14 -24 -18 -5 -13 -178 -52 -178 -41 0 6 -11 3 -24 -5 -36 -24 -134 -47 -140
-33 -3 7 -8 6 -15 -4 -10 -13 -12 -13 -21 0 -8 12 -10 11 -10 -7 0 -13 2 -23
4 -23 2 0 66 15 142 34 183 45 836 171 969 187 6 1 -3 5 -20 9 -24 6 -16 8 35
9 36 1 103 6 150 11 244 28 857 74 725 54 -99 -15 -283 -48 -359 -65 -61 -13
-93 -16 -101 -9 -8 7 -31 7 -66 1 l-54 -10 54 3 c50 3 52 -8 3 -19 -9 -3 -34
-9 -54 -14 -26 -6 -39 -5 -42 3 -3 7 -8 7 -14 -3 -6 -8 -17 -11 -26 -8 -10 4
-25 -2 -37 -14 -22 -22 -56 -21 -51 2 2 10 -2 9 -11 -3 -8 -10 -21 -18 -30
-18 -9 0 -21 -8 -26 -17 -10 -17 -10 -17 -11 1 0 18 -2 18 -27 -6 -31 -28 -63
-42 -63 -28 0 6 -4 10 -10 10 -5 0 -10 -9 -10 -19 0 -14 -5 -18 -20 -14 -22 6
-26 -7 -9 -24 9 -9 2 -16 -27 -28 -22 -9 -52 -18 -67 -20 -24 -3 -27 -1 -22
16 10 30 -22 12 -34 -19 l-9 -27 -1 26 c-1 14 8 34 20 45 26 23 50 69 42 78
-12 12 -80 6 -208 -19 -72 -14 -131 -25 -132 -25 -2 0 -3 7 -3 15 0 22 -17 18
-23 -6 -3 -12 -10 -18 -17 -14 -6 4 -17 1 -25 -5 -12 -10 -18 -10 -29 -1 -10
8 -16 9 -21 1 -3 -6 -10 -8 -15 -5 -5 3 -11 1 -15 -5 -8 -13 -65 -13 -65 1 0
5 -11 -3 -25 -18 -20 -23 -26 -25 -34 -14 -8 13 -15 13 -53 1 -24 -8 -51 -13
-62 -12 -10 1 -25 -6 -32 -15 -11 -15 -13 -15 -14 -3 0 10 -7 7 -20 -10 -11
-14 -20 -19 -20 -12 0 6 -6 12 -14 12 -8 0 -16 -6 -19 -12 -4 -10 -7 -10 -18
0 -18 17 -29 15 -29 -4 0 -14 -3 -14 -15 -4 -13 10 -15 9 -15 -11 0 -19 -2
-21 -10 -9 -8 12 -10 9 -10 -14 0 -22 4 -27 16 -22 26 10 404 102 559 136 77
17 163 37 190 44 28 8 64 16 81 19 l32 6 -15 -47 c-9 -26 -15 -57 -14 -70 0
-14 -3 -21 -10 -16 -6 3 -8 16 -5 29 8 32 -20 55 -29 25 -5 -17 -12 -20 -31
-16 -30 8 -49 -1 -36 -17 13 -17 21 -67 11 -67 -5 0 -9 7 -9 15 0 8 -2 15 -4
15 -9 0 -73 -32 -95 -47 -27 -20 -27 -25 -2 56 10 31 9 32 -7 19 -29 -25 -60
-28 -67 -7 -13 39 -54 16 -98 -54 -18 -29 -37 -61 -41 -72 -5 -12 -10 -15 -13
-8 -2 7 0 21 6 32 6 11 11 30 10 43 0 16 -10 3 -31 -42 -27 -57 -32 -62 -37
-41 l-6 24 -20 -26 c-10 -14 -23 -24 -27 -21 -4 3 -11 -2 -15 -12 -5 -15 -8
-14 -15 7 -6 16 -5 25 2 27 20 7 65 51 53 52 -7 0 -13 11 -13 25 0 30 1 30
-50 4 -28 -15 -39 -26 -36 -38 2 -9 8 -32 11 -51 6 -29 5 -33 -6 -22 -8 7 -19
30 -25 50 l-12 37 -1 -36 c-1 -22 5 -42 14 -49 14 -12 13 -16 -7 -37 l-22 -24
-13 24 c-15 30 -52 42 -60 21 -3 -9 -1 -26 6 -40 15 -34 14 -44 -4 -44 -9 0
-27 -8 -42 -17 l-25 -17 6 31 c6 28 4 33 -23 46 -26 13 -31 13 -31 1 0 -8 7
-14 16 -14 16 0 15 -7 -9 -77 -6 -18 -8 -35 -5 -38 2 -3 81 27 174 66 297 126
547 207 1015 328 107 28 222 60 254 71 74 25 80 25 83 -4 1 -21 -14 -37 -41
-40 -4 -1 -12 -8 -17 -16 -8 -12 -10 -12 -16 3 -8 23 -21 22 -29 -3 -8 -25
-32 -26 -38 -2 -3 13 -8 8 -20 -18 -9 -19 -16 -30 -17 -23 0 7 -7 10 -16 6
-10 -4 -14 -13 -9 -27 18 -64 13 -80 -36 -106 -17 -10 -18 -8 -9 15 6 15 14
34 19 44 8 14 6 17 -7 16 -10 0 -23 -4 -30 -9 -6 -4 -12 -3 -12 3 0 6 -13 17
-30 26 -34 18 -41 5 -15 -32 26 -38 35 -70 22 -82 -10 -7 -13 -4 -14 11 -1 11
-16 38 -33 60 -26 32 -29 42 -19 54 6 8 10 17 7 20 -3 2 -17 -11 -32 -30 -17
-23 -32 -33 -42 -29 -13 5 -13 8 2 24 9 11 13 19 7 19 -14 0 -55 -59 -48 -70
11 -18 -4 -10 -25 13 l-22 22 -29 -35 c-19 -22 -26 -37 -19 -44 16 -16 11 -26
-13 -26 -18 0 -29 -14 -59 -77 -20 -43 -40 -90 -44 -106 -9 -39 -74 -80 -74
-46 0 22 52 119 80 149 22 23 27 36 21 48 -4 10 -6 23 -4 30 3 6 -3 12 -12 12
-10 0 -14 -5 -9 -12 4 -8 3 -10 -2 -5 -5 5 -9 14 -9 20 0 7 -15 13 -33 14 -30
1 -34 -3 -49 -38 -17 -43 -32 -46 -48 -11 -11 25 -26 28 -55 10 -17 -11 -22
-10 -30 2 -11 17 -25 7 -44 -32 -14 -27 -46 -37 -46 -14 0 33 -33 13 -48 -29
-9 -25 -11 -26 -11 -8 -1 27 -19 40 -27 20 -3 -9 -17 -18 -30 -21 -30 -8 -48
-49 -34 -76 14 -27 13 -30 -12 -27 -22 2 -22 -1 -19 -73 3 -85 -4 -87 -25 -5
-16 60 -13 84 18 128 11 16 18 30 15 33 -8 9 -58 -58 -63 -86 -5 -22 -11 -27
-37 -27 -18 -1 -47 3 -65 9 -28 8 -36 7 -47 -9 -8 -10 -15 -33 -15 -51 0 -28
-3 -33 -21 -30 -12 2 -27 12 -33 23 -6 11 -12 22 -13 24 -2 2 -9 -1 -17 -8
-11 -9 -15 -7 -19 10 -4 13 -10 18 -18 14 -17 -11 -6 -105 24 -195 25 -76 25
-124 0 -60 -30 78 -32 76 -32 -57 -1 -73 1 -133 3 -133 10 0 305 145 396 195
197 108 550 286 570 288 11 1 20 4 20 8 0 8 181 91 187 85 9 -9 -9 -85 -23
-97 -12 -9 -14 -6 -15 22 0 33 0 34 -11 9 -6 -14 -10 -29 -9 -33 2 -11 -27
-65 -39 -72 -6 -4 -4 10 4 30 25 59 18 65 -9 10 -21 -43 -25 -34 -7 15 5 12 2
12 -20 -2 -23 -15 -26 -15 -42 0 -13 13 -16 14 -16 2 0 -9 -52 -41 -130 -79
-71 -36 -128 -66 -126 -69 3 -2 62 24 132 57 70 34 128 61 130 61 2 0 4 -12 4
-27 0 -25 -9 -32 -85 -67 -85 -39 -115 -60 -148 -106 l-18 -25 5 40 5 40 -19
-23 c-13 -15 -19 -38 -19 -65 1 -23 -8 -70 -20 -104 -12 -34 -21 -70 -21 -79
0 -10 -5 -47 -12 -83 l-11 -66 -18 40 c-25 55 -24 70 15 161 62 142 69 211 25
234 -19 11 -20 10 -6 -17 9 -18 11 -41 7 -66 -11 -61 -18 -61 -57 0 -7 11 -6
-5 4 -43 14 -59 14 -63 -7 -103 l-21 -43 -38 54 c-21 29 -44 63 -50 76 -12 22
-14 22 -30 8 -10 -9 -24 -16 -32 -16 -8 0 -30 -10 -49 -22 -19 -12 -50 -22
-69 -22 -33 -1 -35 -4 -46 -47 l-12 -46 45 -34 c28 -21 64 -65 95 -114 61 -98
74 -132 57 -148 -14 -15 -48 24 -85 95 -14 26 -52 79 -84 118 -33 39 -58 77
-55 85 11 27 -19 28 -42 2 -13 -15 -31 -27 -41 -27 -10 0 -28 -7 -40 -15 -13
-9 -23 -11 -25 -5 -4 12 -98 1 -98 -11 0 -5 21 -9 46 -9 l46 0 -7 -37 c-9 -51
-17 -57 -54 -39 l-31 17 0 -36 c0 -35 1 -36 34 -30 31 6 34 5 40 -25 3 -18 6
-49 6 -69 l0 -36 -20 43 c-15 34 -17 48 -9 63 10 20 9 20 -20 4 -28 -14 -31
-20 -30 -63 l1 -47 12 35 13 35 21 -49 c18 -40 22 -66 21 -150 l-1 -101 -18
70 c-13 50 -18 61 -19 40 -2 -29 -2 -29 -16 -11 -23 30 -18 5 11 -59 31 -67
54 -148 54 -190 0 -23 -6 -14 -26 40 -48 132 -53 142 -53 117 -1 -12 5 -37 12
-55 8 -18 17 -45 20 -62 7 -30 7 -30 -13 5 l-19 35 -1 -51 c0 -44 4 -54 25
-68 13 -9 29 -26 36 -37 10 -19 9 -21 -7 -17 -11 3 -27 9 -36 13 -17 7 -18 -2
-18 -111 0 -66 4 -135 9 -154 5 -19 12 -60 15 -90 l5 -55 -13 40 -14 40 -1
-54 c-1 -53 -1 -53 77 -136 70 -75 151 -189 140 -200 -2 -2 -35 33 -73 77
-121 142 -152 171 -87 83 97 -131 117 -182 157 -399 26 -143 32 -221 16 -212
-5 3 -22 30 -39 59 -16 28 -39 63 -50 77 -17 20 -14 8 13 -57 19 -45 39 -100
45 -123 11 -41 3 -148 -10 -133 -4 4 -20 58 -35 118 -30 121 -53 168 -114 235
l-40 45 -1 -38 c0 -26 8 -49 24 -70 42 -56 125 -229 140 -297 10 -43 15 -111
15 -200 -1 -204 -15 -211 -21 -10 -3 147 -8 184 -26 234 -23 62 -67 140 -108
191 l-24 30 0 -214 0 -214 53 -133 52 -134 47 0 47 0 5 42 c3 24 8 83 12 133
7 106 27 223 55 316 10 36 19 72 18 80 -1 23 -36 -84 -54 -166 -10 -42 -19
-74 -22 -71 -8 8 15 159 32 212 32 96 115 254 155 294 66 66 81 50 26 -27 -74
-105 -128 -240 -119 -298 l6 -36 34 33 35 33 -7 -40 c-4 -22 -26 -83 -50 -135
-24 -52 -50 -117 -59 -145 -14 -44 -35 -174 -35 -215 0 -38 17 19 23 77 13
118 78 265 149 341 49 52 120 84 190 85 54 2 61 -1 87 -30 16 -18 34 -52 40
-75 6 -24 14 -52 17 -63 4 -15 -4 -11 -35 17 -49 44 -109 62 -174 54 -84 -12
-98 -24 -20 -18 66 4 75 3 97 -18 25 -23 49 -107 39 -135 -8 -21 -10 -20 -46
21 -41 47 -77 64 -133 64 -59 0 -93 -23 -128 -88 -27 -50 -57 -156 -57 -205
l0 -29 37 30 c109 85 241 121 327 88 51 -20 78 -46 67 -65 -7 -10 -18 -10 -61
3 -65 19 -170 20 -225 1 -37 -13 -37 -14 -7 -9 109 19 258 -4 256 -39 -2 -18
35 -23 95 -11 38 8 31 24 -10 24 -48 0 -26 18 88 72 163 76 284 164 320 232
13 26 8 23 -41 -21 -72 -64 -216 -136 -216 -108 0 3 7 17 16 30 12 18 25 25
49 25 34 0 82 28 154 91 24 21 69 55 99 76 77 50 125 96 189 176 30 37 111
116 181 176 227 194 481 508 704 870 50 80 101 163 115 183 25 37 101 100 158
131 17 9 23 16 14 17 -8 0 -41 -16 -73 -35 -32 -19 -60 -35 -61 -35 -2 0 4 18
12 40 35 88 138 172 213 174 50 1 28 16 -25 16 -45 0 -98 -28 -132 -68 l-23
-27 0 50 c0 40 -9 69 -46 143 -41 82 -48 104 -56 190 -5 53 -21 131 -35 172
-35 104 -34 132 8 215 20 39 51 107 69 153 18 45 45 100 61 121 28 40 37 43
133 56 l49 7 -15 -24 c-8 -12 -23 -50 -33 -83 -9 -33 -33 -82 -53 -110 -36
-49 -36 -50 -9 -32 16 10 30 17 33 15 2 -2 -8 -38 -23 -79 -28 -77 -27 -107 2
-144 16 -19 16 -18 11 20 -4 30 1 54 19 94 14 29 45 126 70 215 25 88 48 170
52 180 3 11 46 59 96 108 102 99 126 107 146 45 15 -43 -9 -125 -47 -164 -24
-24 -30 -44 -45 -136 -11 -73 -14 -114 -7 -126 5 -10 27 -72 49 -138 33 -103
92 -223 108 -223 5 0 -2 35 -13 63 -3 10 3 17 20 21 48 12 82 100 91 233 5 80
47 152 114 194 51 33 73 36 91 14 11 -13 9 -28 -11 -85 -21 -63 -25 -68 -39
-55 -10 10 -14 32 -13 62 1 32 -1 42 -8 32 -16 -26 -9 -72 16 -105 25 -33 32
-68 16 -79 -5 -3 -12 -1 -16 5 -3 5 -16 15 -28 21 -16 8 -13 2 12 -24 l33 -35
-25 -109 c-14 -59 -42 -184 -61 -278 -43 -203 -70 -265 -161 -363 -72 -78
-101 -133 -160 -307 -21 -60 -53 -141 -72 -178 -58 -115 -118 -272 -212 -548
-49 -145 -110 -320 -136 -389 -26 -69 -78 -215 -117 -324 -38 -109 -83 -230
-98 -267 l-28 -69 38 0 c33 0 38 3 46 31 l9 31 42 -31 c26 -19 55 -31 73 -31
l31 0 -33 28 c-18 16 -47 38 -65 50 -22 16 -30 28 -26 42 3 11 9 20 13 20 12
0 121 -84 149 -114 14 -14 34 -26 45 -26 18 0 17 3 -9 30 -16 17 -62 56 -102
88 -71 55 -84 74 -63 87 19 12 207 -120 264 -184 17 -18 30 -21 102 -21 46 0
86 5 89 10 3 6 39 10 78 10 l72 1 -56 53 c-39 36 -96 73 -179 115 -137 70
-139 70 -140 -14 0 -36 -3 -46 -10 -35 -16 24 -11 92 9 136 22 48 72 73 161
81 l55 5 23 -47 c13 -26 21 -49 19 -51 -2 -3 -28 7 -58 20 -30 14 -74 27 -99
30 l-45 6 55 -18 c87 -29 166 -85 279 -199 l103 -104 79 3 79 3 -60 80 c-33
44 -76 112 -96 150 l-37 70 59 -56 c86 -82 99 -89 171 -89 70 0 83 -11 83 -73
0 -31 -2 -34 -24 -30 -17 4 -28 -2 -40 -18 -9 -13 -16 -27 -16 -31 0 -12 44
-10 57 3 8 8 13 8 17 0 7 -11 76 -16 76 -6 0 3 -7 22 -15 43 -9 20 -22 97 -30
172 -36 329 -86 604 -134 740 -28 79 -25 49 8 -88 16 -66 35 -162 41 -214 6
-51 19 -140 29 -198 10 -58 17 -107 15 -109 -5 -5 -20 66 -47 214 -25 140 -42
203 -53 192 -4 -3 -1 -21 5 -39 7 -18 23 -103 37 -188 13 -85 31 -187 40 -227
9 -40 14 -78 12 -85 -3 -7 -15 37 -27 97 -12 61 -42 196 -67 300 -134 578
-154 649 -228 800 -35 72 -76 144 -90 160 -22 26 -21 21 10 -41 37 -74 52
-142 39 -191 -9 -39 -19 -20 -55 123 -17 65 -33 120 -35 122 -2 3 -9 -6 -14
-19 -5 -13 -19 -37 -30 -54 -27 -39 -26 -53 4 -65 14 -5 25 -14 25 -20 0 -15
-21 -12 -42 6 -16 16 -18 15 -24 -2 -4 -11 -18 -44 -32 -74 -41 -93 -44 -112
-23 -126 15 -11 61 -92 61 -109 0 -17 -19 0 -33 30 -9 20 -24 38 -32 41 -8 4
-16 14 -16 23 -1 9 -4 3 -8 -13 -3 -16 -12 -31 -20 -34 -11 -4 -13 2 -8 27 10
51 90 246 155 378 l59 123 22 -56 c11 -31 21 -63 21 -71 0 -9 24 -39 53 -67
58 -58 128 -183 173 -309 25 -72 29 -78 50 -73 29 8 45 -21 109 -192 36 -97
48 -151 74 -317 28 -187 51 -371 67 -542 5 -54 10 -73 21 -73 11 0 13 10 8 43
-14 104 -67 579 -72 643 -5 62 -1 83 25 160 35 101 52 194 51 274 -2 101 -14
102 -16 1 -3 -114 -20 -201 -57 -281 -32 -72 -32 -44 0 77 24 86 27 118 28
258 1 149 -2 172 -37 339 -21 98 -37 182 -35 186 2 4 32 -53 67 -129 35 -75
72 -145 83 -157 20 -22 24 -49 8 -59 -16 -10 -12 -28 5 -21 19 7 45 -80 91
-303 19 -91 36 -172 38 -181 3 -8 8 -26 11 -39 5 -15 3 -21 -3 -17 -18 11 -51
127 -87 308 -19 97 -39 186 -43 197 -4 11 -7 -46 -8 -127 -1 -162 -8 -197 -79
-366 l-37 -88 31 -142 c43 -197 61 -324 61 -443 0 -140 14 -163 20 -33 l5 105
43 -62 c23 -35 42 -65 42 -68 0 -3 -11 -3 -25 1 -24 6 -25 4 -25 -35 l0 -41
54 0 54 0 23 53 c17 40 24 76 27 153 5 130 -12 193 -73 268 l-44 54 23 21 c12
12 26 21 30 21 10 0 45 -82 67 -159 34 -119 35 -254 2 -388 -5 -22 -2 -23 52
-23 50 0 56 2 45 15 -17 20 -5 45 20 45 13 0 28 -12 38 -30 33 -58 55 -31 28
35 -18 43 -46 58 -81 45 -26 -10 -26 -9 -23 28 3 34 6 37 36 40 28 3 40 -3 72
-37 22 -23 47 -63 57 -91 16 -45 43 -69 43 -37 0 30 -254 516 -320 612 -33 48
-123 134 -167 160 -45 26 -41 35 9 23 144 -32 303 -156 364 -283 46 -96 43
-57 -5 62 -22 54 -75 204 -118 333 -43 129 -79 227 -81 218 -2 -9 22 -99 53
-200 32 -101 63 -203 70 -227 l14 -43 -26 23 c-14 13 -33 40 -43 59 -26 52
-94 252 -141 413 -75 262 -150 470 -216 604 -37 73 -64 136 -60 139 10 11 76
-44 102 -86 30 -47 60 -120 141 -332 34 -92 112 -266 172 -387 114 -228 170
-380 214 -576 12 -55 24 -91 26 -80 1 11 -11 86 -28 165 -18 80 -35 161 -39
181 -5 23 -3 51 7 80 7 24 15 57 15 74 2 24 13 37 60 69 46 32 61 38 75 30 9
-6 18 -21 18 -33 2 -37 14 -37 14 0 0 19 -6 43 -14 54 -7 11 -20 54 -29 95
-15 73 -55 195 -63 188 -2 -2 9 -40 23 -83 38 -118 35 -204 -8 -205 -3 0 -9
35 -13 77 -3 42 -13 114 -22 160 -8 46 -14 98 -12 116 l3 32 29 -30 c48 -50
86 -145 107 -268 11 -61 23 -115 27 -119 4 -4 3 35 -2 86 -11 113 -5 142 30
150 16 4 30 19 40 41 24 59 16 71 -17 26 -17 -24 -33 -41 -36 -38 -3 3 5 31
16 63 29 76 142 247 155 233 3 -3 -2 -40 -10 -83 -13 -64 -14 -91 -5 -152 13
-86 14 -147 4 -158 -11 -10 -42 119 -44 184 -1 33 -4 43 -6 25 -9 -63 -44
-199 -53 -205 -7 -4 -3 -36 9 -86 21 -86 31 -357 16 -447 l-8 -49 -27 107
c-41 157 -44 176 -26 169 9 -3 21 -25 26 -48 18 -66 22 -78 26 -74 2 2 -4 31
-12 63 -15 56 -15 92 2 170 5 27 4 26 -15 -10 -12 -22 -33 -46 -48 -52 -25
-12 -29 -10 -54 20 -42 49 -41 29 1 -41 41 -67 96 -227 106 -307 4 -27 4 -48
1 -45 -3 3 -37 77 -77 165 -81 182 -115 245 -134 245 -7 0 -21 -10 -32 -22
-10 -12 -13 -18 -5 -13 11 6 13 4 7 -11 -40 -98 -40 -95 -5 -236 27 -109 33
-154 34 -253 1 -66 7 -138 12 -160 26 -98 19 -91 -53 50 -85 167 -160 275
-226 325 l-43 33 46 -49 c66 -71 215 -294 196 -294 -3 0 -26 29 -52 65 -25 36
-48 65 -50 65 -2 0 32 -57 76 -126 81 -126 137 -235 160 -313 l12 -41 54 0
c31 0 53 4 53 11 0 6 -9 69 -20 141 -11 72 -19 133 -16 135 2 3 11 -9 20 -25
14 -27 26 -88 41 -215 l6 -47 45 0 c43 0 44 0 44 34 0 19 -9 44 -20 57 -21 26
-23 23 -20 -31 1 -24 -2 -32 -9 -25 -8 8 -20 64 -57 270 -3 17 11 -6 32 -50
20 -44 52 -102 71 -130 18 -27 36 -67 39 -87 5 -31 11 -38 28 -38 18 0 26 10
40 58 21 67 118 281 128 282 14 0 28 -107 28 -220 l0 -120 55 0 56 0 -5 32
c-47 289 -68 371 -171 686 -85 261 -94 301 -105 475 -6 96 -15 160 -25 179
-16 34 -20 83 -6 73 17 -10 49 -129 55 -204 12 -148 77 -364 171 -576 35 -78
80 -190 101 -250 34 -98 38 -121 38 -210 1 -55 -3 -124 -7 -152 -13 -76 8 -70
63 20 64 105 176 273 232 346 39 52 48 72 48 104 l0 40 -27 -39 c-14 -21 -70
-111 -123 -199 -117 -194 -162 -265 -166 -265 -2 0 6 26 17 58 29 83 49 164
69 280 25 137 55 201 168 356 26 35 30 46 16 38 -19 -10 -119 -126 -157 -182
-22 -32 -21 -22 3 35 25 58 67 119 142 206 90 105 72 120 -24 19 -61 -64 -76
-77 -63 -50 23 45 85 128 119 159 24 23 26 31 26 108 0 61 -3 82 -11 77 -9 -5
-10 1 -5 22 4 16 9 74 11 129 3 78 2 88 -4 44 -5 -31 -11 -61 -14 -66 -4 -6
-11 -58 -16 -117 -17 -170 -27 -153 -31 51 -9 415 -6 489 24 583 52 161 52
162 25 210 -19 33 -34 46 -69 59 -26 10 -46 24 -48 34 -4 22 11 22 46 0 26
-17 27 -17 11 2 -8 11 -20 32 -27 48 -6 15 -16 27 -21 27 -16 0 -34 -41 -33
-75 0 -29 0 -29 -11 -7 -9 19 -4 35 26 95 26 50 37 84 36 112 -1 35 -2 37 -9
15 -7 -21 -8 -19 -9 17 -1 23 3 45 9 48 6 3 10 2 10 -3 0 -5 25 -47 55 -93
l55 -84 0 126 c0 86 -4 131 -13 143 -11 15 -12 6 -9 -56 5 -85 -7 -82 -31 7
-27 101 -35 119 -51 106 -18 -15 -50 31 -41 59 8 26 10 26 78 -15 32 -19 60
-35 63 -35 13 0 1 75 -16 97 -11 14 -20 32 -20 39 0 8 -4 14 -10 14 -5 0 -10
-9 -10 -20 0 -11 -4 -20 -10 -20 -5 0 -10 9 -10 19 0 11 -4 23 -10 26 -5 3
-10 -1 -10 -9 0 -25 -27 -8 -41 26 -11 27 -14 29 -25 14 -11 -16 -15 -16 -54
4 l-41 21 23 19 c17 14 19 19 7 20 -8 0 -20 -5 -27 -12 -9 -9 -15 -8 -26 7
-13 18 -13 18 -24 -1 -10 -17 -12 -16 -12 11 -1 17 -4 24 -7 17 -2 -6 -8 -10
-13 -7 -9 6 -1 53 12 61 9 6 95 -28 241 -95 l87 -40 0 42 0 42 -283 119 c-396
167 -547 236 -867 396 -154 77 -281 140 -284 140 -9 0 -276 131 -276 135 0 3
26 -7 57 -20 31 -14 63 -23 70 -20 9 3 11 0 7 -7 -5 -8 -2 -9 10 -5 9 4 15 3
12 -2 -6 -9 160 -84 176 -79 6 2 -22 19 -63 36 -90 40 -47 33 70 -11 47 -18
87 -39 89 -47 4 -11 -1 -10 -17 4 -11 11 -21 14 -21 9 0 -19 29 -36 43 -25 9
8 51 -5 152 -44 77 -30 211 -78 298 -106 96 -32 157 -57 157 -65 0 -17 -4 -16
-41 3 -17 8 -36 13 -42 11 -23 -8 56 -39 336 -131 155 -52 312 -105 350 -119
l67 -26 0 34 c0 26 -5 35 -22 40 -37 11 -87 35 -93 45 -8 12 6 13 37 1 59 -21
78 -22 78 -2 0 13 -9 21 -33 25 -18 3 -139 38 -268 77 -128 39 -252 75 -274
80 -22 6 -46 17 -52 26 -12 15 -13 15 -13 1 0 -14 -40 -3 -212 57 -266 92
-465 164 -455 164 10 1 408 -116 757 -222 151 -47 329 -101 395 -121 66 -20
128 -39 138 -42 12 -4 17 0 17 13 0 20 -158 70 -710 228 -248 71 -533 157
-695 209 l-70 23 47 -1 c25 -1 41 -4 35 -8 -8 -5 -7 -8 3 -8 8 0 80 -20 160
-46 80 -25 303 -89 495 -143 193 -55 393 -113 445 -130 76 -24 276 -81 288
-81 1 0 2 9 2 20 0 20 -17 27 -163 64 -33 8 -62 17 -65 20 -16 16 18 19 115 9
59 -7 110 -10 112 -7 11 11 -17 18 -114 29 -58 6 -108 15 -112 18 -16 17 13
17 111 3 59 -9 109 -16 111 -16 3 0 5 22 5 48 l0 49 -82 12 c-118 16 -617 109
-594 110 11 1 146 -19 300 -43 400 -64 376 -61 376 -43 0 11 -18 18 -62 26
-102 17 -541 78 -843 116 -154 20 -332 44 -395 54 l-115 19 230 -4 c229 -4
521 -28 961 -79 119 -14 218 -25 220 -25 2 0 4 8 4 19 0 16 -16 20 -142 34
-301 34 -664 59 -1138 77 -151 6 -360 17 -465 25 -228 18 -218 17 -210 5 3 -5
25 -10 48 -11 23 0 62 -4 87 -9 37 -7 29 -8 -45 -7 l-89 2 -8 -52 c-8 -53 -39
-138 -103 -278 -32 -70 -36 -75 -31 -40 3 22 27 97 54 165 27 69 57 160 67
203 11 49 21 73 26 65 6 -10 64 -14 246 -15 531 -5 1321 -29 1611 -49 l92 -6
0 104 c0 89 -3 107 -19 122 -10 9 -25 14 -34 10 -11 -4 -16 1 -19 18 -2 15
-11 24 -25 26 -13 2 -20 9 -17 16 3 7 -4 24 -15 38 -19 24 -59 37 -115 39 -24
0 -56 -29 -56 -53 0 -10 -7 -18 -17 -18 -31 -1 -75 -45 -71 -71 2 -14 -5 -32
-15 -42 -17 -17 -20 -18 -37 -2 -12 11 -26 14 -39 10 -16 -5 -21 -2 -21 13 0
32 -27 48 -61 35 -27 -11 -29 -10 -29 13 0 23 -9 28 -37 25 -15 -2 -16 8 -4
28 14 22 -6 54 -30 48 -13 -4 -19 0 -19 13 0 46 -64 48 -99 4 -10 -13 -24 -24
-30 -24 -14 0 -34 -39 -27 -55 3 -8 1 -17 -4 -20 -14 -8 -12 -41 2 -64 6 -10
8 -26 5 -35 -8 -20 -56 -21 -63 -1 -5 12 -57 45 -71 45 -3 0 -26 -22 -53 -50
-36 -37 -49 -46 -54 -35 -3 8 -12 15 -20 15 -12 0 -14 7 -10 30 8 39 -18 80
-51 80 -27 0 -56 -35 -48 -56 3 -8 0 -14 -5 -14 -6 0 -12 -12 -14 -27 -2 -23
-7 -28 -28 -25 -15 1 -30 -4 -37 -15 -10 -13 -25 -16 -58 -14 -34 2 -47 -2
-51 -13 -11 -28 -34 -18 -34 13 0 30 -43 76 -60 66 -5 -3 -11 -1 -15 5 -3 5
-12 10 -19 10 -22 0 -96 -71 -96 -91 0 -14 -7 -19 -30 -19 -29 0 -40 13 -20
25 16 10 12 45 -6 52 -8 3 -20 16 -25 29 -11 31 -58 34 -66 5 -3 -14 -15 -21
-37 -23 -27 -3 -31 -7 -34 -35 -3 -31 -6 -33 -42 -33 -21 0 -45 -3 -54 -6 -12
-4 -16 0 -16 16 0 48 -25 8 -60 -96 -20 -61 -44 -121 -53 -135 -9 -13 -17 -39
-18 -59 0 -19 -9 -57 -19 -85 l-17 -50 -8 36 c-6 33 3 86 25 149 5 14 11 67
13 118 3 72 2 92 -9 92 -7 0 -16 5 -19 10 -4 6 6 10 22 10 23 0 29 -4 29 -22
0 -13 1 -43 3 -68 l2 -45 29 55 c36 69 36 74 3 66 -27 -7 -27 -6 5 13 21 14
32 29 32 44 0 27 -26 83 -42 93 -16 10 -58 -46 -58 -77 0 -36 -21 -42 -76 -23
-48 16 -88 13 -138 -13 l-29 -15 7 45 c7 48 -8 73 -37 61 -25 -9 -32 71 -13
136 9 30 16 64 16 77 0 20 -4 22 -29 17 -24 -5 -32 -1 -46 20 -24 36 -33 33
-55 -16 -25 -55 -25 -106 1 -229 11 -56 18 -103 15 -106 -9 -9 -47 130 -68
252 -20 119 -28 142 -41 129z m123 -112 c-29 -78 -30 -79 -24 -23 6 63 22 101
34 81 4 -6 0 -33 -10 -58z m46 -50 c-14 -37 -30 -85 -36 -107 -9 -36 -9 -34
-5 25 4 62 24 129 48 159 22 26 19 -9 -7 -77z m-195 -4 c16 -29 2 -21 -22 15
-17 23 -18 28 -6 18 10 -8 23 -23 28 -33z m-23 -22 c21 -19 51 -59 66 -88 l28
-53 -29 30 c-15 17 -40 46 -55 65 -25 32 -29 34 -41 18 -13 -16 -17 -14 -52
22 l-39 40 42 0 c34 0 49 -7 80 -34z m220 -158 c-10 -57 -8 -123 7 -163 6 -15
3 -14 -11 5 -24 33 -31 150 -13 234 l13 61 8 -40 c4 -22 2 -66 -4 -97z m-229
-2 c24 -15 41 -29 39 -32 -14 -13 -148 56 -148 76 0 13 52 -9 109 -44z m295
27 c-4 -10 -10 -76 -13 -148 -5 -117 -7 -128 -20 -106 -17 30 -11 214 8 249
14 26 37 31 25 5z m-234 -98 c36 -19 108 -83 121 -107 11 -21 11 -21 -18 0
-16 12 -36 29 -44 38 -21 25 -89 54 -130 54 -20 0 -56 -7 -79 -15 -23 -8 -59
-15 -79 -15 -32 1 -34 2 -16 12 11 6 49 22 85 35 68 24 110 24 160 -2z m447
-120 l-1 -90 -3 83 c-2 45 -8 82 -13 82 -6 0 -10 -4 -10 -9 0 -5 -9 -11 -20
-14 -13 -3 -20 -14 -20 -31 0 -31 -53 -163 -58 -146 -3 7 0 22 6 33 24 50 43
126 36 151 -6 23 -3 26 22 27 28 0 27 1 -10 15 -21 7 -42 11 -47 8 -5 -3 -6
-40 -3 -83 4 -48 3 -85 -4 -97 -8 -15 -11 -8 -17 39 -4 31 -4 77 -1 102 6 38
5 44 -8 39 -9 -3 -16 -12 -16 -20 0 -8 -4 -14 -10 -14 -5 0 -10 11 -10 25 0
24 2 24 88 27 104 4 101 7 99 -127z m-327 54 c15 -28 5 -23 -15 7 -9 15 -12
23 -6 20 6 -4 16 -16 21 -27z m-434 12 c-3 -5 -32 -12 -63 -16 -161 -19 -415
-69 -553 -109 -85 -25 -171 -50 -190 -55 -19 -5 -87 -22 -150 -36 -63 -14
-123 -28 -132 -31 -33 -10 -19 22 15 34 49 18 538 138 661 162 60 12 177 30
260 40 83 10 152 18 154 19 2 0 1 -3 -2 -8z m329 -51 c3 -5 28 -16 55 -25 33
-11 59 -28 76 -50 23 -30 81 -177 98 -247 10 -44 -12 -33 -24 11 -16 60 -67
178 -91 213 -14 19 -51 44 -98 66 -68 32 -110 64 -111 84 0 8 88 -40 95 -52z
m232 -17 c-2 -16 -4 -5 -4 22 0 28 2 40 4 28 2 -13 2 -35 0 -50z m-481 35
c-11 -6 -53 -12 -93 -14 -41 -2 -83 -6 -93 -9 -11 -4 -20 -2 -20 4 0 13 81 25
128 19 20 -3 46 -2 57 3 30 12 43 10 21 -3z m1402 -38 c361 -62 454 -79 460
-85 10 -9 -27 -5 -160 20 -73 13 -245 43 -383 65 -137 22 -254 42 -260 45 -38
14 88 -2 343 -45z m-762 -94 c-7 -12 -17 -37 -20 -56 -12 -58 -17 -70 -28 -70
-16 0 -3 77 21 130 11 25 21 63 22 85 1 38 2 38 10 -14 7 -41 6 -59 -5 -75z
m344 116 c0 -4 -34 -41 -76 -82 l-77 -75 29 53 c29 56 84 112 109 112 8 0 15
-3 15 -8z m-1205 -11 c-6 -5 -26 -11 -45 -14 -20 -2 -49 -11 -65 -20 -17 -8
-42 -13 -58 -10 -16 3 -27 1 -27 -6 0 -6 -9 -11 -20 -11 -11 0 -37 -7 -57 -15
-26 -11 -39 -12 -43 -4 -5 7 -10 4 -14 -7 -6 -15 -9 -16 -16 -4 -5 8 -6 18 -3
23 2 4 -12 1 -34 -9 -21 -9 -49 -18 -63 -20 -39 -6 -110 -11 -106 -7 7 8 195
55 276 70 47 8 117 21 155 28 85 16 133 18 120 6z m344 5 c-2 -3 -74 -29 -159
-59 -85 -30 -183 -66 -218 -80 -62 -25 -63 -25 -60 -4 2 16 21 27 88 49 180
62 367 111 349 94z m70 -50 c5 -12 26 -34 48 -48 36 -23 121 -143 110 -154 -2
-3 -25 24 -51 60 -25 35 -65 79 -88 97 -50 38 -78 70 -72 81 8 13 44 -11 53
-36z m1016 -7 c139 -47 125 -50 -24 -4 -62 19 -115 35 -117 35 -2 0 -4 5 -4
11 0 7 7 8 18 4 9 -4 67 -25 127 -46z m-2462 34 c-7 -2 -21 -2 -30 0 -10 3 -4
5 12 5 17 0 24 -2 18 -5z m2293 -10 c-2 -9 -18 -22 -37 -29 l-34 -12 44 -1
c56 -1 49 -9 -25 -26 -33 -7 -68 -17 -79 -21 -18 -6 -18 -5 4 19 13 15 28 24
33 21 5 -3 7 0 6 7 -2 7 11 19 27 26 17 8 37 18 45 23 8 5 16 9 17 9 1 1 0 -7
-1 -16z m-2363 0 c-7 -2 -19 -2 -25 0 -7 3 -2 5 12 5 14 0 19 -2 13 -5z m1162
-2 c-16 -14 -76 -31 -87 -25 -5 3 -17 -1 -26 -9 -9 -8 -28 -17 -42 -19 -14 -3
-32 -9 -41 -12 -10 -5 -19 -2 -22 7 -4 11 17 21 86 40 95 26 148 34 132 18z
m274 -12 c-8 -5 -21 -9 -30 -9 -9 0 -41 -13 -72 -30 -31 -16 -64 -30 -72 -30
-9 0 -18 -7 -21 -15 -4 -8 -12 -15 -19 -15 -7 0 -15 -10 -18 -22 -5 -18 -8
-19 -21 -8 -14 11 -16 8 -17 -21 -2 -29 -3 -30 -6 -7 -2 14 -11 29 -18 32 -16
6 -19 2 -30 -39 -4 -16 -10 -24 -12 -17 -7 19 -23 3 -23 -24 0 -13 -4 -24 -10
-24 -5 0 -10 7 -10 15 0 8 -4 15 -10 15 -5 0 -10 -17 -10 -37 l-1 -38 -14 30
-13 30 -1 -40 c-1 -30 -4 -36 -11 -25 -8 12 -10 10 -10 -10 l-1 -25 -9 23 c-8
20 -12 21 -30 10 -11 -7 -20 -16 -20 -20 0 -4 -11 -3 -25 2 -26 10 -33 2 -14
-17 7 -7 5 -20 -9 -43 -20 -31 -20 -32 -24 -9 -3 21 -6 18 -28 -24 -23 -47
-24 -47 -37 -25 -12 23 -12 23 -13 -7 0 -16 -5 -37 -11 -45 -8 -12 -10 -8 -7
16 3 23 1 31 -9 27 -7 -3 -13 -10 -13 -15 0 -6 -6 -5 -15 2 -13 11 -15 8 -16
-16 0 -25 -13 -39 -91 -94 -50 -36 -98 -75 -108 -87 -10 -13 -22 -23 -26 -23
-5 0 -27 -14 -48 -30 -43 -32 -56 -31 -56 6 0 20 22 38 128 108 70 46 136 94
147 107 29 32 15 24 -138 -78 -120 -81 -144 -93 -180 -93 -40 1 -41 1 -22 16
11 8 95 63 187 122 92 58 165 108 163 110 -2 3 -37 -16 -77 -40 -40 -25 -100
-60 -133 -78 -82 -46 -204 -127 -300 -199 -60 -45 -81 -56 -83 -44 -12 50 192
179 725 458 105 55 190 101 189 103 -2 1 -47 -18 -100 -44 -54 -25 -100 -43
-102 -41 -7 6 276 149 381 193 137 56 269 103 279 97 4 -3 2 -9 -5 -14z
m-1552 -5 c-3 -3 -12 -4 -19 -1 -8 3 -5 6 6 6 11 1 17 -2 13 -5z m1728 -34
c12 -19 -14 -10 -42 16 l-28 25 32 -15 c17 -9 35 -20 38 -26z m252 -140 c3
-41 3 -72 -1 -69 -11 10 -35 158 -35 209 l1 45 14 -55 c8 -30 17 -89 21 -130z
m950 154 c-3 -3 -12 -4 -19 -1 -8 3 -5 6 6 6 11 1 17 -2 13 -5z m-1417 -8 c0
-2 -7 -7 -16 -10 -8 -3 -12 -2 -9 4 6 10 25 14 25 6z m391 -51 c23 -51 49
-174 39 -180 -4 -2 -21 43 -39 100 -17 58 -34 112 -38 121 -14 37 20 0 38 -41z
m1193 25 c72 -16 196 -43 275 -60 79 -16 146 -32 149 -35 2 -2 -7 -7 -22 -11
-23 -5 -203 37 -496 116 -103 29 -50 23 94 -10z m-2056 8 c-2 -6 -44 -25 -94
-42 -49 -17 -95 -35 -101 -39 -7 -5 -13 -4 -13 0 0 25 33 44 110 67 99 29 103
30 98 14z m577 -4 c12 -12 13 -19 4 -30 -6 -8 -14 -14 -16 -14 -3 0 0 7 7 15
18 22 -2 19 -45 -6 -28 -17 -33 -24 -24 -35 10 -13 6 -18 -13 -16 -3 1 -11 -5
-18 -13 -8 -10 -17 -12 -29 -6 -11 6 -23 4 -36 -6 -19 -15 -19 -15 8 -9 33 8
34 -1 5 -50 -19 -32 -23 -35 -29 -18 -6 16 -10 12 -25 -24 -17 -43 -18 -43
-30 -20 l-13 23 -1 -28 c0 -16 -4 -26 -9 -23 -15 9 -29 -17 -34 -61 -6 -52
-10 -58 -47 -77 -17 -8 -28 -11 -25 -6 3 4 1 19 -4 32 -9 22 -9 22 -9 -7 -1
-16 -5 -43 -11 -60 -9 -26 -10 -22 -8 32 3 51 1 60 -10 51 -7 -6 -13 -31 -13
-57 0 -25 -5 -53 -10 -61 -8 -12 -10 -11 -10 7 0 22 -1 22 -20 6 -11 -10 -20
-27 -21 -38 0 -11 -3 -14 -6 -7 -11 27 -23 10 -23 -33 0 -25 -7 -61 -14 -80
-18 -41 -30 -47 -16 -7 8 22 7 24 -3 10 -10 -16 -14 -14 -35 20 l-23 37 7 -50
c4 -35 1 -61 -9 -85 l-15 -35 -3 55 c-1 34 -4 43 -6 25 -5 -36 -34 -128 -39
-123 -2 2 3 26 12 53 8 28 13 57 11 65 -5 18 -6 15 -36 -80 l-20 -65 -1 55 -1
55 -15 -40 c-8 -22 -14 -58 -14 -80 2 -57 1 -65 -10 -65 -5 0 -10 21 -10 46 0
26 -5 64 -11 85 -10 32 -14 36 -29 26 -17 -10 -17 -12 1 -46 24 -44 24 -47 -1
-54 -14 -4 -18 -10 -13 -23 6 -16 7 -16 14 2 7 18 8 18 8 -2 1 -11 -6 -29 -14
-40 -11 -15 -14 -16 -15 -4 0 21 -53 97 -57 83 -2 -6 5 -26 16 -44 22 -36 29
-133 11 -144 -5 -3 -10 -1 -10 6 0 6 -8 9 -19 6 -13 -3 -21 1 -23 10 -2 11 -9
9 -27 -9 -21 -19 -24 -19 -18 -4 9 22 0 56 -14 56 -5 0 -9 -12 -9 -26 0 -35
-26 -118 -61 -191 -29 -62 -42 -75 -53 -50 -3 6 -4 0 -1 -15 3 -15 0 -39 -6
-55 l-11 -28 -10 25 c-12 31 -38 61 -48 55 -5 -3 -11 -24 -15 -47 -4 -24 -15
-48 -24 -55 -14 -11 -14 -14 -2 -22 11 -7 4 -12 -25 -20 -68 -19 -67 -19 -60
60 4 39 12 83 17 96 5 13 6 35 3 47 -7 31 18 52 37 30 10 -12 10 -22 1 -47 -6
-17 -10 -33 -7 -35 4 -4 185 147 185 155 0 2 -10 1 -21 -2 -21 -7 -21 -6 -5
16 43 62 -17 29 -64 -34 -16 -23 -30 -36 -30 -30 0 6 23 40 51 77 48 62 60 96
23 65 -9 -7 -23 -14 -32 -16 -10 -1 -24 -11 -33 -22 -9 -11 -19 -18 -22 -15
-3 3 -11 -11 -17 -32 -11 -31 -14 -34 -22 -20 -9 16 -13 13 -34 -21 -23 -37
-24 -37 -18 -8 12 53 56 124 109 173 62 57 296 241 366 287 37 24 46 34 33 37
-20 3 68 78 193 163 39 27 70 51 68 53 -2 2 -16 -5 -32 -15 -35 -25 -73 -45
-73 -39 0 2 57 51 128 107 70 57 149 124 175 148 43 40 261 189 279 190 4 1
14 -6 23 -15z m1070 -67 c103 -53 161 -89 163 -101 3 -15 1 -16 -17 -4 -29 18
-37 4 -12 -21 36 -36 89 -21 60 17 -13 16 -12 16 6 1 27 -22 361 -191 570
-288 93 -44 171 -84 173 -90 2 -5 -6 -7 -17 -4 -20 5 -21 2 -15 -41 5 -32 3
-46 -5 -46 -7 0 -11 -7 -9 -16 6 -32 -17 -24 -37 12 -16 30 -17 37 -5 44 11 7
4 18 -30 49 -46 42 -60 49 -60 31 0 -6 -26 6 -57 27 -68 45 -123 67 -136 54
-17 -17 3 -59 39 -81 37 -23 56 -21 35 4 -7 8 -8 17 -3 20 6 3 15 -1 22 -9 7
-8 18 -15 24 -15 6 0 27 -10 46 -22 l35 -22 -30 -6 -29 -5 24 -23 c13 -12 34
-22 46 -22 26 0 45 -20 48 -54 l3 -25 -26 20 c-14 12 -74 53 -134 93 -59 39
-221 150 -360 246 -434 300 -407 283 -428 264 -10 -9 -16 -21 -12 -27 3 -5 2
-7 -3 -4 -6 3 -28 2 -50 -3 -76 -15 -117 -19 -108 -10 5 5 40 14 78 19 65 9
112 34 100 52 -3 5 -23 13 -45 19 -22 6 -37 15 -34 20 4 7 13 6 25 0 30 -16
34 -12 9 10 -43 35 -6 20 156 -63z m132 57 c-3 -3 -12 -4 -19 -1 -8 3 -5 6 6
6 11 1 17 -2 13 -5z m726 -1 c-7 -2 -21 -2 -30 0 -10 3 -4 5 12 5 17 0 24 -2
18 -5z m-2773 -68 c-11 -26 -23 -45 -26 -42 -3 3 4 26 17 51 29 59 36 53 9 -9z
m70 45 c0 -5 -4 -10 -10 -10 -5 0 -10 5 -10 10 0 6 5 10 10 10 6 0 10 -4 10
-10z m270 2 c0 -5 -10 -17 -22 -28 -19 -17 -21 -17 -15 -1 4 9 2 17 -4 17 -6
0 -13 -9 -16 -20 -3 -11 -10 -20 -15 -20 -5 0 -20 -12 -34 -27 l-24 -28 10 28
c9 25 8 27 -10 17 -10 -5 -22 -15 -25 -20 -4 -6 -10 -8 -15 -5 -5 3 -16 -7
-24 -22 -13 -24 -15 -25 -16 -8 0 17 -3 16 -19 -8 -12 -19 -20 -24 -23 -16 -3
10 -9 6 -17 -9 -12 -22 -13 -22 -25 -6 -12 15 -14 14 -24 -14 -8 -23 -15 -30
-26 -26 -11 4 -19 -2 -25 -17 -5 -13 -10 -18 -10 -10 -1 11 -4 11 -18 0 -15
-13 -16 -11 -9 14 10 41 -8 26 -45 -36 l-31 -52 5 42 c4 33 2 40 -9 36 -8 -3
-14 -17 -14 -32 0 -14 -3 -37 -7 -50 -6 -23 -7 -23 -14 -5 -4 10 -8 32 -8 47
-1 36 -25 31 -29 -6 -2 -15 -7 -27 -11 -27 -4 0 -20 -25 -36 -55 -15 -31 -30
-54 -32 -51 -3 2 0 13 6 24 6 12 11 25 11 31 0 23 -16 9 -39 -34 -28 -52 -37
-53 -23 -1 6 20 7 36 3 36 -7 0 -34 -54 -44 -90 -2 -8 -10 5 -17 29 -25 91
-31 83 135 162 240 113 393 180 495 215 105 37 110 38 110 26z m1777 2 c-3 -3
-12 -4 -19 -1 -8 3 -5 6 6 6 11 1 17 -2 13 -5z m-2086 -45 l-10 -24 0 26 c-1
14 2 29 6 33 12 12 14 -9 4 -35z m1652 34 c-7 -2 -21 -2 -30 0 -10 3 -4 5 12
5 17 0 24 -2 18 -5z m-1723 -30 c0 -16 -5 -35 -10 -43 -7 -11 -10 -4 -10 28 0
23 5 42 10 42 6 0 10 -12 10 -27z m931 -1 c-5 -9 -32 -44 -60 -77 -28 -32 -51
-65 -51 -71 0 -21 20 -26 27 -7 12 31 93 153 102 153 16 0 21 -31 6 -36 -8 -4
-12 -10 -10 -15 3 -4 -3 -17 -15 -29 -11 -11 -17 -20 -12 -20 4 0 2 -4 -3 -8
-17 -12 -65 -87 -65 -101 0 -7 -7 -10 -17 -7 -14 4 -26 -11 -53 -67 -19 -39
-45 -87 -57 -105 -31 -47 -29 -64 2 -22 14 19 29 36 33 39 4 3 14 26 22 51 11
34 15 40 18 23 3 -23 -9 -52 -40 -93 -11 -14 -33 -47 -50 -74 -21 -35 -32 -46
-38 -36 -5 8 -10 2 -15 -21 -8 -38 -44 -113 -51 -107 -2 3 3 24 11 48 8 24 13
46 10 49 -3 3 -8 -5 -12 -17 -3 -12 -10 -19 -15 -16 -7 4 -9 -9 -6 -37 3 -36
-3 -59 -35 -124 -21 -44 -36 -69 -33 -55 5 25 11 77 21 168 7 59 -10 37 -20
-28 -4 -25 -12 -51 -18 -58 -6 -7 -8 -41 -5 -80 3 -37 2 -80 -2 -97 -5 -19 -9
14 -10 90 l-3 120 -8 -110 c-4 -60 -14 -130 -22 -155 l-15 -45 -2 70 c-3 77
-4 74 -29 -80 -6 -38 -15 -95 -21 -125 -5 -30 -12 -77 -15 -104 -6 -46 -7 -47
-21 -27 -12 17 -13 28 -5 54 11 34 51 265 50 288 -1 29 -18 -31 -43 -156 -15
-71 -28 -131 -30 -132 -2 -2 -6 20 -9 49 -5 53 -24 115 -32 107 -4 -5 10 -122
20 -164 l8 -30 -22 19 c-11 11 -21 30 -21 43 0 12 -5 23 -11 23 -6 0 -8 -9 -4
-21 4 -12 8 -28 9 -35 1 -8 16 -29 34 -47 36 -38 59 -110 47 -153 l-8 -29 -7
25 c-5 14 -9 43 -10 65 -2 32 -3 35 -9 16 -5 -21 -10 -16 -36 38 l-29 62 -12
-40 c-6 -22 -21 -51 -32 -66 -11 -14 -24 -39 -27 -55 -5 -21 -13 -30 -26 -30
-15 0 -19 -5 -15 -17 3 -10 8 -45 11 -78 l6 -60 -21 44 c-11 24 -23 42 -25 39
-3 -3 -1 -29 5 -58 12 -62 13 -124 3 -134 -5 -4 -13 21 -19 56 -8 45 -12 54
-13 29 -1 -30 -3 -32 -18 -20 -15 13 -16 12 -8 -11 4 -14 10 -49 12 -78 5 -49
2 -57 -24 -84 -37 -40 -60 -51 -79 -40 -13 7 -8 14 27 40 24 18 49 32 57 32
15 0 10 41 -14 99 -17 40 -23 37 -65 -36 -16 -26 -29 -45 -29 -42 0 18 26 78
46 106 38 51 28 90 -13 51 -22 -20 -23 -20 -23 -2 0 10 9 34 21 53 11 18 18
36 15 38 -8 8 -56 -25 -56 -38 0 -6 -4 -8 -9 -5 -4 3 -11 -56 -14 -132 -3 -75
-10 -148 -15 -162 -7 -18 -9 6 -5 85 3 79 2 106 -6 95 -6 -8 -11 -42 -12 -75
-1 -33 -3 -51 -6 -40 -11 53 -36 122 -50 137 -13 14 -13 20 -3 33 17 20 8 19
-39 -6 -66 -34 -79 -19 -22 25 36 27 51 45 51 62 0 31 -5 30 -42 -6 -16 -17
-40 -35 -51 -41 -12 -6 -1 8 24 32 25 24 65 72 88 106 56 80 71 86 71 29 0
-29 -8 -55 -23 -77 -40 -59 -41 -62 -25 -53 21 12 136 150 154 186 14 27 13
28 -7 28 -15 0 -19 4 -15 15 3 8 9 22 12 30 5 13 2 14 -20 5 -14 -5 -40 -17
-57 -26 -44 -22 -48 -10 -5 18 43 28 48 45 6 23 -49 -25 -45 -18 26 52 65 62
148 113 187 113 9 0 17 5 17 10 0 21 -32 22 -86 2 l-56 -20 22 23 c11 12 39
30 61 40 21 10 39 25 39 33 0 8 -6 12 -12 9 -68 -25 -77 -17 -15 14 42 21 173
105 192 122 23 21 -45 -8 -115 -49 -48 -29 -64 -35 -45 -19 38 33 157 105 173
105 7 0 12 4 12 10 0 12 -93 -24 -131 -51 -15 -10 -31 -19 -35 -19 -4 0 23 22
62 49 38 27 78 59 89 72 l20 23 -30 -17 -30 -18 23 20 c12 11 28 21 35 24 6 2
9 8 5 12 -4 5 -31 -6 -59 -24 l-52 -32 65 63 c35 35 86 92 113 128 157 209
520 600 544 586 7 -5 8 -13 2 -24z m713 12 c9 -23 -9 -50 -57 -83 -52 -36 -84
-71 -126 -138 -34 -55 -61 -83 -61 -65 0 6 6 15 13 19 7 4 23 31 36 60 14 29
50 78 87 114 35 35 64 67 64 71 0 17 -18 6 -64 -38 -43 -41 -46 -43 -30 -14
22 36 90 90 115 90 9 0 20 -7 23 -16z m154 -3 c19 -11 -18 -21 -82 -21 -58 0
-56 7 5 19 59 12 62 12 77 2z m-1848 -64 c0 -16 -9 -28 -25 -35 -31 -14 -31
-8 -2 28 27 35 27 35 27 7z m2942 6 c63 -13 76 -19 75 -35 -2 -22 0 -22 -94 3
-88 24 -87 24 -78 38 8 14 5 14 97 -6z m-762 -215 c59 -46 18 -31 -50 19 -71
51 -240 192 -240 199 0 4 180 -132 290 -218z m-267 155 c38 -39 53 -62 49 -75
-4 -18 -5 -18 -26 1 -34 32 -53 27 -48 -11 2 -18 10 -39 16 -47 9 -12 5 -13
-26 -7 -42 8 -54 -4 -38 -35 11 -19 10 -20 -12 -8 -13 6 -52 41 -87 78 -71 74
-55 48 27 -42 28 -32 52 -63 52 -70 0 -10 -96 90 -143 150 -18 22 -18 22 8 29
21 5 34 -2 76 -41 50 -46 81 -55 87 -23 2 9 -11 25 -30 39 l-33 23 24 -27 c14
-15 21 -27 16 -27 -9 0 -88 69 -93 82 -8 18 45 7 72 -15 27 -22 32 -23 57 -10
39 20 28 44 -17 37 -29 -4 -34 -2 -34 15 0 18 23 40 42 41 3 0 31 -26 61 -57z
m-2033 29 c0 -10 5 -23 11 -29 9 -9 -1 -18 -38 -36 l-50 -24 11 28 c7 20 14
25 22 18 7 -6 15 -4 23 5 8 9 8 16 2 20 -12 8 -3 36 10 36 5 0 9 -8 9 -18z
m-625 -12 c0 -7 -6 -15 -12 -17 -8 -3 -13 4 -13 17 0 13 5 20 13 18 6 -3 12
-11 12 -18z m1797 -23 c-12 -15 -82 -190 -78 -194 3 -3 57 112 76 162 l12 30
14 -34 c18 -43 18 -45 -8 -100 -17 -39 -30 -52 -72 -72 -62 -29 -98 -79 -152
-210 -21 -50 -57 -117 -81 -147 -23 -30 -46 -71 -50 -91 -14 -74 30 -396 68
-496 23 -62 23 -65 2 -65 -13 0 -10 -7 12 -30 16 -16 24 -30 17 -30 -6 0 -14
5 -17 10 -8 13 -25 13 -25 1 0 -5 13 -12 30 -16 26 -6 32 -14 46 -62 21 -73
13 -102 -77 -261 -149 -264 -259 -416 -448 -620 l-92 -99 -37 13 c-20 7 -53
13 -72 13 -35 -1 -35 -1 11 -13 92 -26 95 -19 -66 -172 -81 -76 -187 -186
-235 -244 -94 -113 -160 -180 -142 -145 5 11 20 29 32 40 24 21 180 210 195
235 12 19 -37 -11 -79 -49 -28 -25 -28 -25 -16 -3 24 47 79 98 144 132 36 19
66 38 66 42 0 9 -67 -10 -114 -33 -22 -10 -41 -17 -43 -15 -7 6 98 62 162 86
106 40 104 39 63 39 -31 1 -110 -19 -173 -44 l-20 -8 20 22 c31 35 93 63 146
65 26 0 45 5 42 10 -3 4 -32 6 -63 4 -42 -3 -70 -12 -102 -33 -40 -26 -42 -26
-23 -4 32 38 46 48 110 80 65 31 98 35 160 18 39 -11 40 -11 80 33 22 24 75
82 117 127 l77 84 -20 38 c-10 21 -19 44 -19 51 1 21 40 -32 40 -54 0 -18 2
-19 17 -7 9 8 58 78 109 156 l93 141 -9 54 c-11 68 -42 155 -76 218 -37 68
-43 54 -11 -22 26 -61 62 -207 53 -215 -2 -3 -7 11 -11 29 -10 46 -56 145 -61
132 -3 -6 9 -48 26 -94 17 -45 28 -85 25 -88 -6 -7 -56 106 -84 191 -13 38
-25 67 -27 65 -5 -5 22 -104 62 -232 19 -60 32 -111 30 -113 -2 -2 -30 57 -62
132 -59 136 -78 161 -50 64 l16 -53 -28 27 c-47 45 -46 31 1 -35 50 -72 77
-121 76 -140 0 -7 -7 1 -14 17 -7 17 -25 41 -41 55 l-27 25 26 -45 c27 -47 60
-130 54 -137 -2 -1 -32 46 -66 107 -75 130 -97 155 -73 81 8 -28 13 -53 10
-56 -3 -3 -22 4 -42 16 -20 11 -43 18 -52 15 -14 -6 -15 -9 -2 -29 8 -12 17
-33 20 -47 3 -14 9 -33 13 -44 7 -15 5 -17 -13 -11 -31 9 -30 -28 2 -52 21
-17 56 -72 56 -88 0 -4 -34 12 -76 35 -77 42 -98 45 -76 9 8 -12 11 -33 7 -50
-6 -26 -4 -29 18 -29 16 0 26 -7 30 -19 4 -16 -4 -21 -55 -31 -32 -6 -67 -8
-78 -5 -24 8 -48 -34 -57 -100 -7 -52 -6 -51 -60 -63 l-41 -9 24 45 c35 65 29
86 -7 29 -35 -53 -47 -55 -30 -5 7 19 50 69 102 120 118 114 100 115 -39 2
-30 -25 -29 -21 23 62 54 86 73 129 62 141 -3 3 -14 -9 -24 -26 -85 -147 -129
-219 -132 -216 -4 4 6 24 78 158 24 43 41 83 38 90 -2 6 -23 -26 -47 -72 -24
-46 -46 -79 -48 -73 -2 6 4 22 14 37 9 14 19 51 23 82 6 55 7 56 46 67 58 17
54 41 -7 41 -27 0 -48 -3 -48 -6 0 -8 -68 -39 -87 -39 -25 0 4 28 41 39 25 7
27 9 8 10 -26 1 -131 -40 -164 -64 -22 -17 -22 -17 30 -11 70 9 60 -7 -15 -23
-32 -7 -100 -35 -152 -62 l-93 -49 44 53 c25 28 53 67 62 86 19 36 47 111 42
111 -2 0 -26 -35 -54 -77 -29 -43 -72 -100 -98 -128 l-46 -50 38 69 c20 38 63
112 96 164 69 111 94 157 79 148 -16 -10 -112 -159 -186 -291 -78 -137 -74
-130 -80 -124 -8 9 92 258 126 315 37 62 157 194 176 194 18 0 26 -97 13 -175
-14 -85 -20 -94 -21 -29 -1 27 -5 60 -9 74 -10 32 -13 -75 -4 -143 l6 -45 91
44 c50 24 104 44 120 44 21 0 44 14 85 51 31 28 73 62 93 75 38 24 57 44 42
44 -5 0 -20 -8 -33 -17 l-25 -17 16 24 c9 14 39 40 68 59 50 33 65 54 21 31
-12 -6 -24 -10 -26 -8 -7 8 191 198 246 235 63 43 49 58 -20 23 -63 -32 -39 0
45 60 72 52 66 70 -8 24 -41 -26 -42 -26 -21 -3 12 13 34 44 49 69 16 25 47
68 70 95 24 28 46 65 50 83 3 17 5 32 2 32 -2 0 -18 -21 -35 -47 -37 -56 -119
-148 -103 -117 6 12 8 24 5 27 -14 14 60 267 100 344 8 17 28 40 43 52 22 16
24 20 10 21 -14 0 -7 15 35 76 29 42 63 80 75 85 12 4 22 16 21 26 0 10 42 97
93 193 51 96 102 193 113 216 16 30 23 37 29 27 5 -8 4 -19 -1 -26z m88 28
c11 -13 10 -14 -4 -9 -9 3 -16 10 -16 15 0 13 6 11 20 -6z m643 8 c-7 -2 -21
-2 -30 0 -10 3 -4 5 12 5 17 0 24 -2 18 -5z m1399 -21 c128 -26 136 -28 115
-42 -32 -21 -53 -21 -137 -1 -41 11 -86 22 -100 25 -17 3 -26 13 -27 26 -2 24
-16 25 149 -8z m-2592 -22 c-25 -22 -63 -55 -85 -72 -39 -31 -39 -31 -15 -4
26 29 131 116 140 116 3 0 -15 -19 -40 -40z m-1590 5 c0 -7 10 -15 22 -17 27
-4 32 -19 14 -43 -14 -19 -15 -19 -9 4 5 20 3 23 -10 18 -10 -4 -17 -2 -17 4
0 6 -7 17 -15 26 -8 8 -13 19 -9 24 7 12 24 1 24 -16z m2136 -37 c8 -15 13
-49 13 -75 l-1 -48 -10 45 c-5 25 -21 68 -35 95 -25 48 -26 49 -4 30 13 -11
29 -32 37 -47z m564 54 c0 -4 -14 -16 -31 -26 -17 -10 -53 -38 -80 -62 -58
-51 -68 -55 -39 -15 47 67 150 137 150 103z m-2749 -95 c-19 -19 -23 0 -9 44
l13 44 3 -39 c2 -21 -1 -43 -7 -49z m503 -8 c-9 -30 -19 -48 -21 -42 -5 13 27
106 33 100 2 -2 -3 -28 -12 -58z m3869 47 c4 -10 1 -13 -8 -9 -8 3 -12 9 -9
14 7 12 11 11 17 -5z m-3696 -32 c12 -32 -13 -31 -28 1 -15 33 -15 34 3 24 11
-6 22 -17 25 -25z m-80 -11 c-28 -55 -27 -77 1 -24 28 53 29 54 36 27 5 -22 0
-39 -24 -76 -16 -26 -39 -55 -49 -64 -18 -16 -18 -15 -13 11 5 25 4 27 -11 14
-15 -12 -17 -11 -17 2 0 15 49 106 72 135 18 21 20 6 5 -25z m2134 -75 c32
-46 47 -59 79 -68 26 -7 50 -24 71 -50 17 -21 44 -44 59 -50 34 -14 51 -45 20
-35 -24 8 -28 -16 -5 -35 8 -6 14 -15 13 -18 -1 -4 4 -18 11 -32 9 -16 1 -11
-23 15 -20 22 -51 72 -71 111 -43 91 -76 105 -143 64 -18 -11 -34 -20 -37 -20
-2 0 -5 30 -7 67 -3 64 -5 69 -36 89 -29 20 -31 24 -15 33 23 12 34 3 84 -71z
m435 -25 c65 -59 166 -155 224 -214 113 -114 231 -219 268 -238 12 -6 22 -16
22 -22 0 -6 -6 -7 -12 -2 -7 4 -29 10 -49 13 -31 4 -66 34 -233 198 -187 182
-236 219 -236 176 0 -20 57 -73 176 -163 120 -91 255 -225 283 -281 13 -25 34
-63 47 -85 24 -41 31 -75 15 -75 -6 0 -24 27 -42 59 -35 67 -69 105 -69 79 0
-9 7 -21 16 -29 30 -25 57 -94 62 -160 7 -103 -10 -116 -32 -24 -10 42 -20 74
-23 72 -2 -3 3 -44 12 -91 9 -48 14 -97 12 -109 -3 -16 -5 -13 -6 10 0 17 -10
60 -21 95 -12 34 -25 110 -29 168 -5 58 -12 113 -16 123 -13 30 -24 18 -19
-20 4 -36 2 -34 -28 27 -47 94 -48 94 -63 74 -8 -11 -19 -15 -30 -10 -18 6
-18 28 1 96 l7 25 -25 -23 -26 -23 -8 23 c-5 13 -33 46 -63 73 l-54 50 57 -79
c53 -74 61 -96 33 -96 -16 0 -101 90 -104 109 -2 14 -62 71 -74 71 -18 0 -17
-17 3 -32 20 -15 21 -19 8 -28 -18 -11 -13 -17 57 -70 31 -24 47 -43 48 -60 3
-45 9 -54 49 -72 21 -10 42 -18 48 -18 13 0 78 -51 78 -61 0 -5 -17 -1 -37 9
-21 11 -52 22 -69 25 l-31 6 15 -34 c14 -30 17 -32 27 -18 11 15 17 14 56 -9
86 -51 101 -73 32 -47 -27 10 -27 9 -10 -8 9 -10 34 -22 54 -28 23 -7 43 -21
52 -37 22 -39 7 -45 -33 -14 -38 29 -51 33 -43 13 3 -7 -3 -19 -13 -25 -10 -6
-20 -22 -22 -34 -5 -39 -22 -25 -31 25 -4 27 -18 64 -30 83 -20 31 -25 34 -57
29 -42 -7 -61 9 -80 70 -11 34 -11 40 3 49 14 9 13 14 -6 48 -25 44 -33 47
-43 16 -6 -21 -7 -21 -21 6 -19 36 -28 26 -14 -15 15 -43 6 -49 -14 -9 -16 31
-16 44 0 83 8 20 -20 25 -29 5 -3 -7 -4 5 -3 27 1 30 -2 40 -13 40 -10 0 -16
-12 -18 -33 -2 -18 -7 -30 -11 -27 -5 2 -6 24 -4 47 4 37 1 47 -21 67 -24 22
-24 25 -8 37 15 12 12 18 -35 65 -43 42 -53 59 -53 85 0 18 5 34 12 36 7 3 22
22 33 44 28 54 52 54 92 -1 18 -25 31 -45 29 -45 -2 0 -18 14 -36 30 -40 37
-58 39 -35 3 l18 -27 -28 22 c-15 12 -30 21 -32 19 -10 -10 19 -58 44 -73 15
-10 56 -47 90 -83 83 -88 81 -62 -2 30 -66 73 -78 99 -30 60 24 -18 29 -19 42
-5 14 14 11 21 -36 68 -47 48 -63 76 -43 76 5 0 62 -48 128 -107z m-2836 39
c-7 -3 -16 2 -21 9 -16 25 -9 32 12 13 13 -12 16 -20 9 -22z m1830 -3 c0 -10
-2 -19 -4 -19 -2 0 -11 -3 -20 -6 -13 -5 -13 -1 -3 25 12 32 27 32 27 0z
m-1880 -6 c0 -19 -3 -24 -10 -17 -6 6 -8 18 -4 27 9 24 14 21 14 -10z m180 6
c0 -6 -4 -7 -10 -4 -5 3 -10 11 -10 16 0 6 5 7 10 4 6 -3 10 -11 10 -16z m960
0 c0 -18 -63 -89 -79 -89 -4 0 -7 12 -8 27 0 14 2 21 5 15 9 -13 44 14 61 46
15 28 21 28 21 1z m502 -26 c-10 -28 -10 -28 -11 12 -1 28 2 36 10 28 8 -8 8
-19 1 -40z m1318 -26 c0 -11 -50 25 -75 54 -13 15 -5 11 27 -12 26 -19 47 -38
48 -42z m-584 55 c12 -8 27 -146 17 -156 -4 -3 -18 22 -32 55 -14 34 -35 67
-46 73 -11 6 -22 12 -25 14 -2 2 2 7 10 12 18 12 61 13 76 2z m1475 -25 c-7
-7 -19 -7 -36 1 -38 17 -31 32 10 19 24 -7 32 -14 26 -20z m-3931 -84 c7 -38
10 -84 8 -103 -4 -35 -4 -35 -15 -10 -11 24 -12 24 -12 -12 -1 -21 -6 -38 -12
-38 -6 0 -9 6 -6 14 20 53 18 127 -8 236 l-7 25 20 -22 c12 -13 25 -52 32 -90z
m-75 67 c21 -40 19 -57 -3 -37 -10 10 -24 17 -30 17 -16 0 -15 23 0 38 16 16
15 16 33 -18z m795 9 c-7 -11 -14 -18 -17 -15 -3 3 0 12 7 21 18 21 23 19 10
-6z m2010 11 c0 -5 -4 -10 -10 -10 -5 0 -10 5 -10 10 0 6 5 10 10 10 6 0 10
-4 10 -10z m-2628 -54 c-29 -42 -38 -49 -40 -34 -2 13 9 34 29 54 48 50 53 41
11 -20z m324 27 c-10 -10 -19 5 -10 18 6 11 8 11 12 0 2 -7 1 -15 -2 -18z m44
17 c0 -5 -2 -10 -4 -10 -3 0 -8 5 -11 10 -3 6 -1 10 4 10 6 0 11 -4 11 -10z
m3507 -6 c-3 -3 -12 -4 -19 -1 -8 3 -5 6 6 6 11 1 17 -2 13 -5z m-4168 -51 c1
-64 -30 -275 -42 -288 -6 -6 -7 2 -3 25 4 19 11 89 16 155 7 105 15 155 25
155 2 0 4 -21 4 -47z m437 34 c3 -8 0 -26 -6 -41 -6 -17 -6 -25 0 -21 6 3 10
-3 10 -14 0 -22 -14 -28 -25 -11 -3 5 -13 6 -22 3 -12 -5 -15 -2 -11 8 3 8 11
31 19 52 13 38 26 47 35 24z m3865 -13 c29 -9 49 -22 52 -33 4 -16 -3 -15 -66
8 -39 14 -72 31 -74 38 -5 13 14 10 88 -13z m-4082 -22 c0 -24 -1 -25 -9 -7
-12 28 -12 47 0 40 6 -3 10 -18 9 -33z m3251 -75 c134 -88 140 -94 140 -131
l0 -31 -22 33 c-15 24 -24 30 -32 22 -7 -7 -16 -1 -29 22 -14 25 -17 27 -13
10 2 -13 1 -22 -4 -20 -4 2 -57 50 -116 107 -117 113 -113 112 76 -12z m-2766
39 c-3 -19 -13 -43 -21 -53 -13 -17 -14 -17 -9 2 2 11 7 42 11 70 5 38 9 45
16 32 6 -9 7 -32 3 -51z m1828 36 c23 -20 40 -104 36 -181 -3 -64 -3 -65 -37
-73 -18 -5 -47 -8 -65 -6 -29 3 -27 5 29 26 l60 22 -62 -5 c-77 -7 -81 5 -15
39 50 26 47 34 -7 15 -37 -13 -55 -4 -20 10 24 10 24 10 2 10 -38 1 -26 27 20
41 23 7 47 14 52 15 6 2 -14 4 -42 4 -62 1 -68 13 -15 28 l37 10 -38 2 c-40 1
-43 20 -4 22 21 1 21 1 -2 8 -22 6 -23 8 -8 23 18 18 52 14 79 -10z m-2592
-17 c7 -9 11 -18 8 -21 -7 -7 -58 17 -58 28 0 14 37 9 50 -7z m1346 -21 c-4
-14 -9 -24 -12 -21 -3 2 -2 17 2 31 3 15 9 25 11 22 3 -3 2 -17 -1 -32z m3130
22 c13 -10 16 -18 8 -25 -7 -8 -17 -4 -34 14 -26 28 -8 36 26 11z m-4276 -88
c-15 -80 -45 -133 -35 -61 7 48 -1 86 -17 77 -5 -4 -28 -34 -50 -68 -31 -48
-38 -55 -33 -31 18 86 35 114 88 144 32 18 53 26 56 19 2 -6 -2 -42 -9 -80z
m1110 43 c-11 -23 -23 -41 -26 -41 -2 0 0 9 6 19 5 11 15 32 20 47 6 15 13 24
16 21 3 -3 -4 -23 -16 -46z m-1295 -41 c8 -27 -23 -173 -41 -190 -15 -14 -16
-13 -10 13 4 16 11 59 15 97 5 38 12 74 16 80 4 6 -5 20 -19 31 -14 11 -26 25
-26 32 0 14 58 -42 65 -63z m4515 55 c0 -8 -4 -15 -10 -15 -5 0 -10 7 -10 15
0 8 5 15 10 15 6 0 10 -7 10 -15z m-811 -21 c3 -16 1 -17 -13 -5 -19 16 -21
34 -3 29 6 -3 14 -13 16 -24z m-2454 -22 c-3 -17 -16 -38 -28 -48 -12 -10 -16
-12 -9 -4 6 8 12 20 12 26 0 21 20 67 26 61 3 -3 3 -19 -1 -35z m305 -22 c-17
-32 -22 -19 -7 19 7 20 13 27 15 18 2 -9 -2 -26 -8 -37z m-354 -8 c-9 -17 -20
-34 -26 -37 -5 -3 -10 -14 -10 -24 0 -10 -7 -25 -16 -32 -15 -12 -16 -11 -9
11 16 54 36 94 53 106 24 17 26 11 8 -24z m2317 -49 c45 -36 112 -96 150 -132
42 -41 67 -59 67 -49 0 9 3 23 6 32 4 10 1 16 -9 16 -25 0 -31 20 -11 35 17
12 17 16 5 37 -13 21 -13 22 6 8 11 -8 63 -49 114 -91 52 -42 134 -102 182
-133 75 -48 87 -59 76 -72 -14 -17 -15 -16 39 -43 40 -20 61 -45 49 -57 -3 -3
-28 7 -57 21 -29 14 -54 24 -56 22 -5 -4 29 -35 76 -70 17 -13 19 -16 7 -13
-10 3 -24 6 -31 6 -7 0 -41 27 -76 60 -47 43 -58 58 -41 53 39 -10 16 14 -27
28 -42 13 -82 50 -101 93 -8 20 -15 26 -20 18 -5 -9 -11 -4 -20 15 -8 18 -15
23 -20 15 -10 -17 -46 22 -36 40 4 7 -2 3 -15 -8 -12 -12 -19 -27 -16 -33 7
-11 159 -148 216 -194 l35 -28 -35 23 c-51 34 -205 161 -285 237 -38 37 -114
103 -169 149 -54 45 -95 82 -92 82 4 0 44 -30 89 -67z m-3585 41 c16 -11 22
-24 21 -52 l-2 -37 -6 35 c-5 29 -8 31 -14 16 -9 -23 -15 -18 -27 23 -10 35
-4 38 28 15z m168 -64 c-22 -48 -25 -51 -25 -26 -1 31 42 117 47 94 1 -8 -8
-38 -22 -68z m-374 53 c10 -9 18 -29 18 -45 l0 -29 -30 34 c-16 19 -30 40 -30
46 0 16 21 13 42 -6z m1407 -35 c-12 -29 -23 -59 -26 -65 -11 -27 -25 -11 -21
22 2 19 3 35 2 35 -3 0 -191 -207 -217 -240 l-28 -35 22 45 c12 25 32 59 45
76 13 17 24 35 24 39 0 17 -44 -32 -82 -89 -33 -51 -38 -56 -38 -33 0 35 -11
34 -38 -3 -13 -16 -40 -39 -61 -49 -21 -11 -46 -32 -56 -48 -25 -37 -106 -123
-116 -123 -5 0 -9 12 -9 28 -1 24 -2 25 -12 8 -6 -12 -8 -44 -5 -85 7 -70 -7
-69 -18 1 -6 33 -10 37 -30 32 -15 -4 -24 0 -28 10 -4 9 -17 16 -29 16 -17 0
-20 -3 -9 -9 14 -9 9 -41 -7 -41 -11 0 -37 29 -31 34 6 6 226 144 343 215 58
36 134 86 168 112 35 26 65 47 68 46 3 -1 28 17 55 40 39 32 139 106 152 112
2 1 -7 -23 -18 -51z m-1325 36 c26 -10 18 -27 -8 -20 -23 6 -25 2 -34 -47
l-10 -52 -1 56 c-1 69 8 80 53 63z m3160 -102 c33 -53 78 -121 100 -151 76
-100 85 -114 79 -125 -4 -6 -11 -2 -17 9 -6 10 -30 40 -54 67 -24 28 -59 74
-79 104 -20 30 -38 52 -40 50 -9 -9 38 -84 87 -138 54 -60 135 -208 146 -265
9 -49 -3 -40 -34 25 -57 118 -125 230 -198 322 -55 71 -74 103 -74 125 0 36
10 75 19 75 3 0 33 -44 65 -98z m1096 82 c0 -8 -5 -12 -10 -9 -6 4 -8 11 -5
16 9 14 15 11 15 -7z m118 -28 c104 -44 126 -56 102 -56 -7 0 -19 -8 -26 -17
-11 -15 -9 -21 7 -39 11 -12 17 -24 12 -27 -16 -10 -73 34 -74 56 -1 17 -2 18
-6 5 -2 -10 -8 -18 -11 -18 -13 0 -72 40 -72 49 0 5 -12 12 -26 15 -21 6 -25
11 -19 29 3 12 7 28 7 35 1 6 2 12 2 12 1 0 47 -20 104 -44z m-149 -8 c1 -5
-3 -8 -9 -8 -5 0 -10 12 -9 28 0 24 1 25 9 7 5 -11 9 -23 9 -27z m-4405 -100
c4 -29 3 -48 -2 -48 -5 0 -13 20 -16 45 -8 51 -26 70 -27 28 -1 -25 -2 -24
-11 10 -7 28 -7 46 3 69 l12 30 17 -43 c10 -24 20 -65 24 -91z m936 110 c0
-52 -13 -127 -21 -122 -13 7 -11 52 2 59 6 4 8 22 4 46 -4 25 -3 39 4 39 6 0
11 -10 11 -22z m273 -53 c-2 -7 -31 -29 -63 -49 -33 -20 -63 -42 -67 -49 -7
-12 12 -1 86 49 19 13 37 21 40 19 9 -10 -35 -48 -109 -92 -41 -25 -117 -73
-169 -105 -51 -32 -95 -58 -96 -56 -8 8 83 147 119 182 47 46 166 140 166 131
0 -3 -28 -34 -63 -68 -34 -34 -78 -82 -97 -107 l-35 -45 52 43 c28 24 86 82
129 129 l77 84 17 -27 c10 -15 16 -33 13 -39z m37 15 c0 -22 -2 -40 -4 -40 -2
0 -6 18 -8 40 -2 22 0 40 4 40 5 0 8 -18 8 -40z m2820 4 c0 -8 -4 -12 -10 -9
-5 3 -10 13 -10 21 0 8 5 12 10 9 6 -3 10 -13 10 -21z m-3866 -11 c24 -84 12
-124 -19 -63 -19 36 -29 39 -21 6 5 -20 3 -23 -14 -19 -21 6 -38 23 -22 23 5
0 17 16 28 35 20 38 40 45 48 18z m-170 1 c9 -3 16 -15 16 -26 0 -17 3 -18 15
-8 20 16 19 2 -1 -50 -21 -52 -34 -51 -34 3 0 23 -7 53 -16 65 -15 22 -9 27
20 16z m3396 -15 c0 -11 -4 -18 -10 -14 -5 3 -7 12 -3 20 7 21 13 19 13 -6z
m-1996 -1 c-10 -17 -93 -120 -107 -133 -25 -24 33 64 68 103 38 42 53 53 39
30z m-570 -35 c-10 -16 -32 -51 -49 -80 l-32 -51 -16 49 c-17 55 -19 52 58 93
48 24 60 21 39 -11z m3570 11 c26 -13 56 -48 56 -67 0 -1 -19 -1 -42 -1 -33 1
-46 7 -57 25 -15 22 -14 23 1 11 9 -8 19 -9 22 -4 3 6 -1 12 -9 16 -8 3 -15
12 -15 21 0 19 2 19 44 -1z m-1460 -13 c-12 -12 -92 -26 -81 -15 10 10 80 32
86 27 3 -2 0 -7 -5 -12z m-2694 -47 c0 -6 -7 -17 -15 -24 -13 -11 -15 -6 -15
31 1 41 2 43 15 25 8 -11 15 -25 15 -32z m555 -94 c-30 -52 -55 -87 -55 -79 0
35 24 93 63 151 65 98 60 42 -8 -72z m2143 108 c-3 -7 -20 -14 -39 -16 -50 -5
-19 19 34 27 5 0 7 -5 5 -11z m1555 5 c9 -9 -13 -34 -24 -27 -14 8 -11 34 4
34 8 0 17 -3 20 -7z m-4378 -17 l40 -15 -42 -7 c-61 -10 -42 -27 21 -19 28 4
49 5 46 2 -4 -4 -104 -50 -246 -113 -31 -13 -32 -12 -37 12 -4 22 2 28 53 54
43 21 125 86 125 98 0 1 18 -5 40 -12z m3203 -191 c37 -71 66 -109 145 -190
86 -87 98 -96 93 -70 -4 20 -3 25 3 15 7 -13 51 -242 51 -265 0 -6 -14 6 -31
25 l-30 35 25 -40 c22 -34 57 -161 56 -198 -1 -7 -14 22 -29 63 -51 133 -108
246 -184 363 -41 63 -93 150 -116 194 -23 44 -57 97 -77 118 -33 37 -35 42
-29 85 4 25 9 49 12 54 6 8 31 -35 111 -189z m-2619 30 c0 -66 -3 -104 -8 -95
-10 17 -16 127 -12 205 5 89 19 11 20 -110z m3875 100 c21 -27 26 -42 21 -64
-4 -19 -1 -32 10 -41 13 -11 15 -8 15 18 0 30 1 31 49 30 28 0 54 3 60 6 11 7
86 -27 96 -43 8 -13 -24 -29 -46 -24 -18 5 -18 3 -4 -37 8 -23 15 -52 15 -63
0 -19 -1 -20 -20 -2 -11 10 -20 31 -20 47 0 21 -5 28 -19 28 -10 0 -37 7 -60
15 -37 13 -43 13 -48 -1 -9 -25 -30 2 -47 61 -9 29 -23 58 -32 66 -15 12 -16
9 -9 -41 l7 -55 -53 52 c-54 53 -64 80 -16 42 l27 -20 0 34 c0 18 3 37 6 40
11 10 39 -10 68 -48z m-1639 25 c-3 -5 -13 -10 -21 -10 -8 0 -12 5 -9 10 3 6
13 10 21 10 8 0 12 -4 9 -10z m-745 -19 c-15 -30 -12 -106 9 -201 11 -47 24
-132 29 -190 8 -84 16 -118 41 -170 17 -36 31 -72 31 -80 -1 -32 -69 136 -79
194 -53 302 -62 406 -41 447 6 10 13 19 16 19 2 0 0 -9 -6 -19z m1638 -86 c0
-16 -2 -22 -5 -12 -2 9 -9 17 -14 17 -5 0 -9 19 -8 43 l1 42 13 -30 c8 -16 14
-43 13 -60z m-3173 -28 l1 -102 -14 72 c-12 59 -12 79 -2 103 7 16 13 30 14
30 0 0 1 -46 1 -103z m2679 16 c20 -38 45 -84 57 -103 14 -21 16 -29 6 -20
-17 16 -107 169 -107 182 0 20 12 3 44 -59z m-3004 15 c0 -16 -3 -19 -11 -11
-6 6 -8 16 -5 22 11 17 16 13 16 -11z m111 -201 c17 -53 18 -61 4 -85 -16 -27
-16 -27 -9 -2 6 21 5 23 -8 12 -13 -10 -16 -5 -21 37 -6 48 -34 118 -43 108
-3 -2 0 -16 6 -31 5 -15 10 -39 9 -54 0 -26 -1 -25 -14 8 -20 52 -19 5 1 -54
9 -26 14 -49 12 -52 -6 -5 -26 35 -78 155 -59 138 -54 173 17 115 l43 -35 1
53 0 53 30 -85 c17 -47 39 -111 50 -143z m689 176 c0 -46 -14 -73 -24 -48 -8
22 -8 70 1 78 15 16 23 5 23 -30z m2900 25 c0 -7 -5 -20 -10 -28 -8 -12 -10
-9 -10 13 0 15 5 27 10 27 6 0 10 -6 10 -12z m-782 -121 c23 -45 59 -120 80
-167 21 -47 52 -99 69 -116 31 -34 98 -152 90 -160 -2 -3 -31 35 -65 83 -66
97 -122 170 -122 159 0 -4 9 -25 21 -47 11 -23 16 -39 11 -36 -4 4 -17 24 -27
47 -10 22 -22 40 -27 40 -17 0 -5 -24 102 -205 42 -71 112 -195 155 -275 80
-147 128 -223 228 -363 89 -124 114 -174 131 -266 9 -46 16 -91 16 -100 0 -9
-26 34 -58 94 -57 109 -168 282 -218 340 -23 27 -23 26 4 -15 115 -178 251
-434 237 -448 -10 -9 -79 68 -142 159 -28 41 -83 135 -122 209 -38 74 -77 144
-85 155 -12 17 -12 21 1 31 14 9 2 38 -86 210 -88 173 -184 325 -197 312 -2
-3 16 -67 41 -143 25 -76 44 -144 41 -149 -2 -6 -9 2 -15 18 -74 187 -155 377
-162 382 -20 12 -6 -33 45 -149 29 -67 63 -144 75 -171 12 -27 19 -51 17 -53
-2 -3 -16 3 -30 13 -15 9 -29 14 -33 10 -3 -3 6 -34 22 -68 70 -158 129 -316
111 -298 -9 10 -78 174 -122 295 -92 250 -127 334 -135 329 -16 -9 -10 -67 17
-162 14 -52 24 -108 22 -125 -3 -29 -5 -26 -25 33 -12 36 -29 91 -38 123 -9
31 -20 57 -24 57 -4 0 -14 -11 -21 -25 -12 -22 -11 -33 4 -81 12 -37 14 -60 8
-66 -13 -13 -30 18 -41 79 -9 44 -7 49 24 86 40 46 71 127 89 228 8 41 19 87
25 102 6 16 11 42 11 60 0 29 1 30 15 11 24 -32 19 -80 -12 -109 -22 -20 -24
-25 -10 -25 28 0 57 37 57 72 0 31 1 31 17 15 12 -12 18 -33 18 -64 0 -54 17
-66 34 -24 12 27 9 37 -39 131 -54 105 -71 124 -45 51 10 -29 11 -41 3 -39
-23 8 -31 35 -24 82 7 45 9 47 25 32 10 -9 36 -53 59 -99z m-2187 51 c-14 -39
-14 -59 0 -35 18 31 27 18 18 -30 -12 -63 -68 -180 -109 -226 l-33 -38 43 7
c41 7 42 6 35 -17 -17 -54 -69 -121 -119 -154 -27 -18 -37 -6 -12 15 19 15 80
110 74 115 -2 2 -20 -17 -41 -42 -20 -25 -37 -44 -37 -42 0 2 7 25 15 51 8 29
10 50 4 53 -5 4 -9 0 -9 -7 0 -27 -52 -122 -131 -240 -45 -68 -79 -114 -75
-103 5 11 28 74 52 140 76 207 241 521 311 591 22 22 29 4 14 -38z m-831 22
c0 -11 -7 -20 -15 -20 -8 0 -15 -8 -15 -17 0 -13 -3 -14 -11 -6 -18 18 -2 63
21 63 13 0 20 -7 20 -20z m3948 -54 c53 -40 141 -100 195 -132 54 -33 121 -82
148 -111 43 -46 49 -57 49 -96 0 -44 11 -86 49 -187 11 -30 15 -47 8 -36 -49
74 -91 145 -116 194 -27 53 -126 160 -137 149 -3 -3 2 -20 11 -37 29 -55 46
-112 32 -104 -42 24 -127 88 -127 95 0 12 2 11 43 -6 l36 -15 -15 42 c-8 23
-19 47 -24 53 -6 7 -9 23 -8 35 3 21 -1 23 -51 24 -37 1 -55 -3 -59 -13 -7
-19 25 -41 60 -41 20 0 31 -8 42 -29 15 -28 15 -29 -6 -23 -12 3 -25 -1 -32
-10 -6 -8 -31 -19 -56 -24 l-45 -9 -33 68 c-18 37 -36 85 -39 105 l-6 37 22
-19 c12 -11 25 -16 29 -10 4 5 -15 31 -42 59 -28 27 -47 44 -42 37 14 -24 -2
-11 -19 14 -16 24 -16 27 1 45 9 10 21 19 26 19 5 0 53 -33 106 -74z m-3734
-16 c4 -14 -4 -5 -18 20 -14 25 -25 50 -25 55 -1 16 36 -48 43 -75z m180 39
c9 -48 7 -109 -4 -109 -9 0 -15 45 -10 79 1 11 -2 11 -14 -2 -9 -8 -16 -21
-16 -28 0 -7 -3 -10 -6 -6 -7 7 28 97 37 97 4 0 9 -14 13 -31z m3886 10 l25
-20 -32 16 c-18 8 -33 18 -33 20 0 10 16 4 40 -16z m-977 -24 c62 -29 214
-292 282 -485 20 -58 53 -134 72 -169 l35 -63 -28 -93 -28 -92 -21 61 c-12 33
-31 79 -42 101 -32 63 -81 209 -113 336 -33 135 -95 265 -164 349 -61 73 -59
87 7 55z m-3285 -20 c17 -38 14 -43 -8 -15 -21 27 -25 40 -12 40 5 0 14 -11
20 -25z m963 -32 c-33 -52 -41 -52 -15 0 21 40 35 59 42 53 3 -3 -9 -27 -27
-53z m-1031 -88 c39 -77 61 -219 40 -262 -12 -27 -14 -23 -32 77 -10 58 -35
143 -54 190 -19 47 -38 94 -41 105 -10 36 55 -46 87 -110z m1290 85 c11 -27
11 -34 -2 -47 -14 -14 -17 -13 -23 7 -7 21 -8 21 -26 4 -35 -32 -42 -2 -8 39
34 41 41 41 59 -3z m2194 14 c5 -14 4 -15 -9 -4 -17 14 -19 20 -6 20 5 0 12
-7 15 -16z m981 -102 c27 -68 31 -87 14 -76 -12 7 -33 52 -69 144 l-21 55 25
-30 c14 -16 37 -58 51 -93z m-929 52 c5 -43 -7 -24 -20 31 -5 22 -4 27 4 19 6
-6 13 -28 16 -50z m-3686 32 c0 -21 -20 -30 -33 -17 -9 9 -8 14 3 21 21 14 30
12 30 -4z m4620 -2 c14 -10 42 -33 63 -53 l37 -35 -6 32 c-4 21 -3 32 5 32 17
0 78 -136 86 -190 5 -41 4 -39 -18 23 -13 38 -32 76 -42 85 -17 16 -17 16 -2
-8 15 -24 37 -132 36 -175 0 -11 -15 22 -34 74 -37 103 -64 148 -33 56 33 -98
14 -95 -36 4 -26 52 -59 112 -72 133 -26 41 -22 47 16 22z m-4083 -41 c-3 -10
-5 -4 -5 12 0 17 2 24 5 18 2 -7 2 -21 0 -30z m3132 -43 c1 -13 0 -13 -9 0 -5
8 -9 24 -9 35 l0 20 9 -20 c5 -11 9 -27 9 -35z m-3679 4 c0 -19 -16 -18 -24 2
-11 27 -7 37 9 24 8 -7 15 -19 15 -26z m73 14 c4 -12 4 -24 1 -27 -8 -9 -37
27 -30 38 11 17 23 13 29 -11z m3838 -63 c22 -47 24 -84 3 -40 -14 29 -15 29
-9 3 2 -14 8 -34 12 -45 3 -10 -15 9 -40 41 -48 61 -56 83 -35 104 16 16 45
-10 69 -63z m-3278 32 c-4 -22 -21 -35 -92 -72 -48 -25 -113 -68 -145 -97
-136 -121 -284 -309 -404 -513 -42 -72 -92 -208 -92 -252 0 -14 -4 -21 -10
-18 -5 3 -10 43 -10 88 0 62 6 95 24 138 28 69 137 227 208 302 29 31 52 60
50 65 -7 21 219 221 342 304 71 48 131 87 132 85 1 -1 0 -14 -3 -30z m62 -22
c-73 -58 -297 -269 -360 -338 -54 -60 -63 -74 -60 -101 3 -17 12 -82 21 -145
11 -81 13 -116 5 -124 -16 -16 -20 -8 -29 78 l-9 80 -3 -135 c-2 -131 -3 -134
-15 -85 -7 28 -14 73 -15 100 -4 98 -16 105 -24 15 -7 -72 -10 -81 -18 -57 -5
15 -16 27 -23 27 -29 0 -22 21 40 126 36 60 64 115 63 122 -3 13 -28 -21 -122
-165 -34 -52 -46 -62 -69 -63 l-29 0 38 53 c21 28 57 77 79 107 55 72 64 90
35 65 -36 -31 -140 -172 -192 -260 -50 -84 -58 -91 -33 -32 41 98 179 305 291
437 110 129 189 192 323 257 98 48 112 58 98 68 -26 19 -20 24 14 12 l31 -12
-37 -30z m-483 -12 c12 -27 21 -74 23 -121 5 -83 2 -78 -21 42 -8 44 -22 93
-30 109 -10 18 -11 26 -4 22 7 -4 21 -28 32 -52z m590 -8 c2 -59 -31 -160 -42
-129 -4 11 -10 48 -14 83 -7 57 -5 66 15 87 29 31 38 21 41 -41z m588 -4 c-6
-23 -15 -41 -20 -41 -13 0 -13 -3 7 61 19 61 30 43 13 -20z m2646 -3 c-4 -40
-13 -95 -21 -123 -12 -40 -14 -43 -9 -13 4 31 24 197 24 206 0 1 3 2 6 2 4 0
4 -33 0 -72z m65 -105 c-8 -7 -18 -13 -22 -13 -8 0 -19 79 -19 139 l1 46 27
-80 c24 -70 26 -82 13 -92z m-4131 89 c-7 -13 -9 -8 -9 23 0 35 1 37 10 17 6
-15 5 -30 -1 -40z m525 48 c-9 -15 -45 -32 -45 -22 0 5 10 14 23 20 29 14 29
14 22 2z m840 -17 c-2 -16 -7 -44 -10 -63 -3 -19 -17 -48 -30 -65 l-25 -30 16
55 c18 62 44 130 50 130 2 0 2 -12 -1 -27z m2324 -234 c40 -133 65 -208 136
-407 30 -85 37 -121 41 -200 l4 -97 -16 69 c-8 38 -20 74 -27 81 -7 6 -32 88
-57 181 -54 204 -64 196 -16 -12 40 -170 50 -224 44 -224 -3 0 -25 74 -49 165
-28 105 -48 164 -55 161 -8 -3 -14 17 -18 56 -6 49 -66 361 -91 468 -17 75 70
-127 104 -241z m-3562 230 c2 -8 -14 -25 -36 -38 -51 -31 -71 -68 -70 -128 l1
-48 10 50 c12 66 68 128 68 75 0 -11 -9 -43 -20 -72 -23 -61 -24 -69 -7 -47 7
9 23 20 36 24 22 7 23 5 16 -16 -4 -13 -9 -39 -12 -58 l-6 -34 -13 24 c-11 19
-13 20 -14 6 0 -10 7 -28 15 -41 15 -23 14 -27 -25 -82 l-40 -57 -1 99 c-1 91
-2 95 -10 49 -5 -27 -7 -76 -4 -107 4 -34 2 -58 -3 -58 -11 0 -27 290 -19 356
5 50 25 77 77 105 39 20 54 20 57 -2z m3756 -87 c14 -20 32 -62 41 -92 16 -57
31 -84 90 -161 l36 -46 -39 -31 -39 -31 -32 117 c-28 103 -81 232 -95 232 -3
0 4 -18 15 -41 12 -23 19 -43 17 -46 -3 -2 -16 20 -30 49 -20 41 -27 49 -32
35 -5 -11 5 -35 29 -70 60 -87 45 -121 -18 -40 -42 54 -43 60 -16 143 11 34
20 70 20 79 1 9 7 -1 14 -22 8 -21 25 -55 39 -75z m-3133 32 c0 -19 -4 -34 -9
-34 -9 0 -20 67 -13 75 11 11 22 -9 22 -41z m1140 -83 c-11 -23 -22 -41 -23
-41 -9 0 11 119 23 140 15 25 15 25 18 -17 2 -27 -4 -56 -18 -82z m-1460 100
c0 -6 -4 -13 -10 -16 -5 -3 -10 1 -10 9 0 9 5 16 10 16 6 0 10 -4 10 -9z m270
-16 c-7 -8 -19 -32 -26 -52 l-14 -38 4 38 c2 21 12 47 22 58 20 22 33 17 14
-6z m3050 9 c0 -14 -3 -14 -15 -4 -8 7 -15 14 -15 16 0 2 7 4 15 4 8 0 15 -7
15 -16z m881 -6 c17 -27 51 -322 36 -308 -3 3 -11 46 -17 95 -6 50 -13 99 -17
110 l-6 20 -8 -20 c-7 -19 -8 -19 -8 3 -1 28 -24 74 -45 91 -9 8 -16 18 -16
24 0 13 71 1 81 -15z m-3383 -96 c-3 -25 -4 -26 -14 -7 -6 11 -14 43 -17 70
l-5 50 19 -43 c11 -24 19 -55 17 -70z m-515 34 c12 12 6 -108 -7 -151 -9 -31
-24 -48 -69 -79 -65 -45 -69 -57 -8 -26 34 17 41 18 41 5 0 -8 -6 -15 -14 -15
-13 0 -56 -93 -56 -120 0 -13 -37 -50 -50 -50 -6 0 -1 19 11 43 l21 42 -26
-30 c-14 -16 -25 -33 -26 -37 0 -5 -4 -8 -10 -8 -18 0 -11 25 21 76 25 39 27
45 9 29 -12 -11 -31 -37 -42 -58 -15 -30 -23 -37 -39 -32 -11 4 -26 1 -34 -5
-28 -23 -15 8 23 57 71 90 62 88 -40 -6 -21 -19 -40 -32 -43 -29 -4 3 22 30
56 59 146 125 226 234 245 333 6 37 7 38 18 17 7 -12 15 -18 19 -15z m3982 2
c42 -36 75 -96 75 -133 0 -25 -4 -23 -52 30 -48 53 -90 135 -68 135 5 0 25
-14 45 -32z m-758 -20 c-3 -7 -5 -2 -5 12 0 14 2 19 5 13 2 -7 2 -19 0 -25z
m313 28 c0 -3 -15 -36 -34 -73 -18 -37 -36 -75 -40 -83 -3 -8 -4 5 -1 30 5 42
4 44 -10 25 -9 -11 -21 -39 -27 -63 -17 -68 -31 -64 -26 8 4 53 2 60 -8 45 -8
-10 -21 -41 -29 -69 -9 -28 -19 -57 -21 -65 -3 -11 -7 -11 -20 0 -16 13 -15
21 10 84 l17 40 -20 -25 c-12 -14 -23 -33 -27 -42 -7 -23 -24 -23 -24 -2 0 56
124 163 215 185 40 9 45 10 45 5z m-4102 -126 c-1 -29 -2 -26 -8 15 -11 69
-10 126 1 65 4 -25 7 -61 7 -80z m476 98 c3 -13 6 -32 6 -42 0 -20 0 -20 -15
0 -16 21 -20 64 -6 64 5 0 11 -10 15 -22z m3851 -50 c17 -60 19 -76 6 -62 -7
7 -41 107 -41 121 0 2 4 1 10 -2 5 -3 16 -29 25 -57z m-128 -2 c32 -24 72 -59
89 -78 40 -42 104 -127 104 -137 0 -5 -21 -11 -46 -14 -25 -2 -51 -10 -57 -17
-10 -10 2 -11 56 -7 l67 6 28 -38 c15 -21 33 -47 40 -57 7 -11 10 -13 7 -6
-11 21 29 13 65 -13 40 -30 59 -60 60 -95 0 -23 -5 -20 -56 33 -31 31 -58 57
-60 57 -2 0 1 -11 6 -24 8 -23 6 -23 -58 14 -37 21 -87 44 -110 51 -31 9 -47
20 -53 37 -68 178 -89 202 -116 132 -13 -35 -13 -35 -7 -4 4 23 1 33 -10 37
-22 9 -20 27 6 54 20 21 20 23 3 23 -10 0 -38 -11 -62 -25 -51 -30 -56 -20
-22 48 42 82 46 83 126 23z m-3737 -42 c0 -7 -11 -26 -24 -41 -22 -25 -25 -26
-31 -10 -4 9 0 32 9 51 9 19 16 45 16 58 1 20 3 18 15 -11 8 -18 15 -39 15
-47z m2817 -33 c26 -42 71 -110 100 -152 55 -80 127 -223 137 -274 l6 -30 -23
27 c-12 16 -63 103 -112 195 -50 92 -111 202 -136 244 -25 43 -40 75 -33 72 8
-3 35 -39 61 -82z m-2900 41 c-8 -9 -32 -57 -52 -105 -42 -97 -56 -110 -27
-23 10 31 16 56 13 56 -4 0 -20 -22 -36 -50 -38 -64 -44 -57 -10 12 29 56 117
156 123 138 2 -6 -3 -19 -11 -28z m763 31 c0 -5 -14 -17 -31 -28 -16 -11 -66
-68 -110 -127 -100 -135 -127 -156 -73 -60 23 42 23 44 4 22 -27 -31 -211
-396 -234 -465 -25 -77 -39 -90 -31 -30 9 67 61 226 96 297 39 77 36 85 -6 18
-63 -101 -109 -254 -155 -519 -17 -101 -17 -107 1 -180 24 -98 23 -165 -4
-329 l-22 -134 -19 103 c-16 89 -18 119 -8 238 5 75 9 137 7 139 -11 12 -30
-164 -29 -268 1 -102 7 -149 32 -255 17 -71 34 -150 39 -175 6 -33 8 0 8 120
1 258 37 415 111 480 50 44 90 37 120 -21 20 -39 11 -49 -19 -21 -45 42 -93
19 -136 -66 -34 -66 -42 -126 -51 -357 -9 -228 -16 -295 -31 -295 -5 0 -9 15
-9 33 0 17 -16 101 -35 186 -19 85 -39 200 -45 255 -7 56 -16 123 -21 150 -18
96 -11 273 15 381 14 55 23 101 22 103 -8 7 -56 -121 -67 -178 -18 -95 -15
-319 5 -409 16 -74 15 -105 -3 -60 l-10 24 0 -27 c-1 -30 -20 -39 -22 -10 -2
33 -17 -32 -18 -77 -1 -24 -4 -42 -7 -39 -10 10 8 248 18 241 6 -3 7 3 3 17
-4 12 -7 81 -8 154 -1 165 13 220 97 391 71 144 130 284 122 292 -4 5 -50 -87
-131 -265 -21 -45 -40 -80 -43 -78 -8 9 49 164 77 209 21 31 26 48 19 55 -15
15 63 149 127 219 27 30 90 85 140 121 49 37 91 75 93 85 3 17 0 16 -40 -4
-125 -63 -282 -201 -327 -287 -11 -20 -20 -31 -21 -24 -1 43 116 185 215 259
33 25 94 61 135 80 41 19 83 38 92 43 129 72 168 88 168 73z m-121 -17 c-2 -2
-35 -18 -74 -35 -56 -26 -66 -28 -50 -12 11 11 38 27 60 35 38 14 73 20 64 12z
m226 -61 c-14 -25 -28 -45 -30 -45 -7 0 15 63 31 89 29 43 28 5 -1 -44z m3354
-52 c45 -80 52 -106 21 -78 -15 14 -20 15 -20 4 -1 -10 -5 -8 -15 5 -14 19
-15 18 -16 -15 l-1 -34 -7 30 c-7 28 -8 27 -15 -19 -13 -82 -28 -38 -33 101
l-5 128 25 -25 c14 -14 44 -57 66 -97z m-3729 83 c0 -20 -22 -42 -79 -80 -64
-43 -136 -112 -193 -186 -36 -46 -35 -28 2 36 35 61 220 234 250 234 11 0 20
-2 20 -4z m234 -18 c-4 -7 -34 -48 -67 -91 -55 -73 -135 -197 -261 -404 -27
-46 -51 -81 -54 -79 -16 17 192 351 313 504 58 73 90 105 69 70z m468 -15 c24
-27 30 -71 17 -112 l-12 -36 -23 75 c-13 41 -24 78 -24 83 0 14 27 7 42 -10z
m1423 -81 c9 -29 15 -55 12 -58 -4 -5 -39 73 -52 116 -15 51 22 -3 40 -58z
m1068 16 c-79 -81 -98 -144 -98 -329 l0 -147 -52 -55 -53 -56 1 97 c0 53 4
133 9 177 4 44 7 82 5 83 -7 8 -37 -108 -56 -223 -33 -187 -29 -173 -41 -151
-7 12 -8 62 -4 140 7 136 -9 144 -21 10 -7 -89 -21 -76 -22 21 -1 50 25 172
29 140 1 -5 8 15 16 45 28 105 89 169 240 250 49 27 91 49 94 49 2 1 -19 -23
-47 -51z m-1916 20 c-3 -8 -6 -5 -6 6 -1 11 2 17 5 13 3 -3 4 -12 1 -19z
m1023 -28 c36 -56 170 -323 170 -339 0 -6 -7 -8 -15 -5 -22 9 -18 -7 14 -57
16 -25 54 -95 85 -156 31 -61 92 -161 136 -224 162 -230 173 -249 148 -249
-21 0 -84 76 -133 161 -48 83 -85 137 -85 125 0 -3 38 -85 84 -181 46 -96 87
-189 90 -207 4 -20 -10 2 -37 57 -24 50 -72 142 -107 205 -35 63 -74 144 -86
180 -13 36 -26 64 -30 62 -4 -2 -32 59 -61 135 -43 111 -198 503 -211 535 -10
24 10 2 38 -42z m-2770 35 c0 -2 -10 -10 -22 -16 -21 -11 -22 -11 -9 4 13 16
31 23 31 12z m-174 -64 c-28 -54 -42 -68 -26 -26 16 43 41 87 46 82 3 -3 -6
-28 -20 -56z m2674 22 c0 -32 -5 -28 -14 10 -4 19 -3 26 4 22 5 -3 10 -18 10
-32z m1350 -234 c21 -70 75 -216 170 -459 104 -266 127 -346 130 -455 3 -87 0
-89 -16 -10 -24 110 -131 413 -156 440 -5 5 2 -19 15 -55 89 -238 138 -423
136 -519 l-1 -46 -13 55 c-7 31 -54 157 -103 280 -111 278 -153 446 -201 810
-26 193 -27 278 -2 134 10 -56 28 -135 41 -175z m-1439 242 c-10 -7 -4 -27 28
-92 36 -73 41 -80 41 -51 0 17 5 32 11 32 6 0 35 -53 66 -117 30 -65 75 -148
99 -184 54 -81 92 -215 99 -344 l5 -90 -14 70 c-45 231 -121 399 -202 447 -21
12 -37 32 -45 56 -22 68 -57 127 -103 171 l-45 44 -11 -28 c-10 -25 -7 -37 21
-89 43 -82 69 -161 69 -208 0 -56 -15 -46 -29 20 -13 61 -69 192 -81 192 -4 0
-11 -11 -14 -25 -4 -14 -11 -23 -16 -20 -13 8 -13 -22 1 -65 11 -35 49 -243
45 -247 -1 -1 -15 28 -31 65 -16 37 -38 82 -50 101 l-21 35 23 65 c51 142 78
198 117 238 22 24 42 40 45 37 3 -3 -1 -9 -8 -13z m919 15 c0 -3 -4 -8 -10
-11 -5 -3 -10 -1 -10 4 0 6 5 11 10 11 6 0 10 -2 10 -4z m416 -71 l18 -28 -24
8 c-14 4 -31 13 -39 19 -11 8 -13 8 -7 -1 4 -7 3 -13 -2 -13 -20 0 -20 15 0
54 21 40 21 41 28 15 4 -14 16 -38 26 -54z m-2631 25 c18 -20 18 -22 0 -78
-10 -31 -20 -50 -21 -42 -7 40 -10 140 -4 140 4 0 15 -9 25 -20z m3255 1 c0
-5 -13 -14 -29 -21 -16 -6 -38 -21 -47 -32 -18 -19 -17 -20 24 -59 39 -38 54
-69 33 -69 -5 0 -13 -15 -17 -32 l-7 -33 -12 40 c-7 22 -24 60 -38 84 -21 37
-23 48 -14 68 16 35 107 81 107 54z m-116 -114 c68 -109 67 -121 -2 -37 -60
73 -69 90 -55 103 10 10 7 13 57 -66z m-332 -147 c12 -30 48 -116 80 -190 143
-322 228 -608 228 -761 0 -33 -11 -110 -25 -172 -13 -62 -29 -138 -36 -170 -6
-32 -12 -57 -14 -55 -2 2 3 57 11 123 18 161 17 325 -1 424 -19 99 -60 219
-167 484 -110 275 -168 453 -168 514 0 18 54 -96 92 -197z m464 168 c4 -5 2
-14 -3 -19 -9 -9 -53 15 -53 30 0 11 49 1 56 -11z m-1731 -151 c15 -60 24
-111 21 -114 -7 -8 -66 185 -71 236 l-5 46 14 -30 c8 -16 27 -79 41 -138z
m-243 84 c-4 -9 -9 -6 -18 10 -19 35 -17 46 5 23 10 -10 16 -25 13 -33z m1357
-95 c36 -37 25 -50 -17 -20 -45 31 -83 35 -119 14 -41 -24 -43 -24 -43 -5 0
15 28 34 68 44 l25 7 -32 36 c-82 94 16 31 118 -76z m-1329 59 c0 -5 -5 -3
-10 5 -5 8 -10 20 -10 25 0 6 5 3 10 -5 5 -8 10 -19 10 -25z m1574 -7 c76 -38
197 -158 214 -213 33 -104 24 -277 -19 -355 l-20 -35 6 40 c23 155 24 174 10
230 -8 31 -22 70 -31 86 -24 48 -9 45 20 -3 14 -24 26 -36 26 -27 0 24 -83
121 -143 167 -29 22 -79 65 -112 96 -67 63 -56 66 49 14z m-3924 25 c0 -4 -10
-18 -22 -31 -18 -20 -19 -24 -5 -19 10 4 17 2 17 -6 0 -18 -44 -91 -51 -86 -4
2 -15 -3 -25 -12 -55 -47 -42 -12 25 66 14 17 -6 0 -44 -36 -60 -57 -129 -98
-142 -85 -10 10 40 86 82 125 53 49 165 106 165 84z m648 -88 c0 -22 -4 -51
-8 -65 -5 -16 -8 6 -8 65 0 59 3 81 8 65 4 -14 8 -43 8 -65z m2892 75 c0 -5
-4 -10 -10 -10 -5 0 -10 5 -10 10 0 6 5 10 10 10 6 0 10 -4 10 -10z m635 -88
c21 -102 30 -345 15 -417 -12 -60 -70 -179 -77 -158 -3 7 3 22 11 35 41 63 58
242 37 383 -5 33 -12 105 -16 160 -6 114 6 112 30 -3z m-3330 28 c-3 -5 -19
-19 -36 -31 l-31 -22 12 24 c33 61 43 72 52 55 5 -9 6 -20 3 -26z m-1055 11
c0 -11 -4 -22 -9 -25 -11 -7 -20 14 -13 32 7 19 22 14 22 -7z m4290 -38 c19
-27 25 -40 14 -31 -18 16 -59 78 -51 78 2 0 19 -21 37 -47z m-4327 -57 c-9
-17 -33 -76 -53 -131 -38 -105 -57 -124 -52 -52 4 54 17 96 55 180 28 64 31
66 48 51 17 -15 17 -18 2 -48z m3867 14 c41 0 44 -13 11 -49 -25 -26 -35 -31
-58 -25 -15 4 -34 11 -40 17 -20 15 -15 58 9 84 l22 24 13 -26 c10 -18 22 -25
43 -25z m385 -33 c34 -26 9 -29 -44 -6 -45 19 -71 42 -71 64 0 6 87 -37 115
-58z m-4522 14 c48 -53 85 -118 114 -202 23 -68 24 -72 7 -90 -10 -11 -28 -36
-41 -57 -21 -33 -24 -34 -19 -10 3 14 9 33 12 42 3 9 2 16 -3 16 -10 0 -36
-97 -29 -109 3 -4 0 -13 -5 -21 -7 -10 -9 18 -5 90 3 62 2 97 -3 85 -7 -16
-10 -10 -15 30 -19 135 -55 280 -56 224 0 -10 -17 -52 -37 -95 -36 -74 -38
-86 -42 -194 l-3 -114 -20 38 c-15 30 -22 36 -29 25 -17 -27 4 146 26 218 29
92 70 163 94 163 10 0 34 -17 54 -39z m2980 14 c28 -20 66 -75 93 -135 27 -59
69 -208 61 -216 -2 -3 -24 42 -48 98 -56 135 -101 210 -147 248 l-37 31 30 -7
c17 -4 38 -13 48 -19z m-2138 -76 c-22 -55 -24 -58 -19 -25 7 51 37 126 42
105 1 -9 -9 -45 -23 -80z m3362 85 c-3 -3 -12 -4 -19 -1 -8 3 -5 6 6 6 11 1
17 -2 13 -5z m-1301 -48 c3 -14 -1 -49 -10 -79 -26 -90 -17 -99 11 -12 22 68
27 77 35 59 8 -16 4 -33 -16 -72 -14 -29 -31 -75 -38 -104 l-12 -53 -7 40
c-11 59 -11 137 2 195 12 54 25 64 35 26z m-2336 -26 c0 -5 -8 -10 -17 -10
-10 0 -41 -11 -69 -24 l-50 -23 -3 -94 c-2 -98 -18 -280 -25 -287 -9 -8 -26
38 -38 102 -7 36 -16 66 -19 66 -13 0 -39 -134 -28 -141 20 -12 -11 -85 -72
-170 -34 -46 -75 -104 -93 -127 -20 -28 -32 -38 -34 -29 -5 26 53 139 101 199
60 72 60 85 2 28 l-45 -45 26 64 c34 86 129 274 168 336 47 73 51 84 22 50
-68 -78 -132 -196 -221 -409 -16 -38 -31 -64 -33 -58 -4 12 55 168 88 231 12
24 19 45 16 48 -7 8 -90 -164 -114 -237 -27 -81 -52 -201 -52 -245 0 -19 -11
-54 -24 -79 l-24 -45 -6 37 c-9 56 -7 229 4 305 23 158 87 275 229 418 87 87
139 122 208 138 53 12 103 13 103 1z m3910 -25 c0 -16 41 -78 47 -71 3 3 -2
18 -12 33 l-18 28 21 -19 c12 -10 24 -28 28 -39 3 -11 19 -40 35 -65 16 -25
29 -51 29 -56 -1 -15 -29 23 -45 59 -7 17 -31 44 -53 60 -57 42 -103 124 -52
93 11 -7 20 -17 20 -23z m-4168 -16 c-41 -39 -62 -43 -62 -13 0 14 71 54 95
54 6 0 -9 -19 -33 -41z m3909 -16 c35 -40 48 -92 26 -105 -9 -5 -23 -15 -32
-24 -8 -8 -15 -13 -15 -11 0 3 -3 13 -7 23 -4 11 -3 15 4 11 7 -5 14 8 18 34
6 36 4 44 -20 69 -20 20 -25 34 -20 47 6 15 8 15 13 3 3 -8 17 -29 33 -47z
m-3698 -28 c-15 -30 -29 -53 -31 -51 -4 5 25 76 39 93 21 25 19 13 -8 -42z
m-573 18 c-4 -16 -13 -39 -18 -53 -11 -25 -11 -25 -11 -2 -1 21 24 82 34 82 2
0 0 -12 -5 -27z m1768 8 c47 -24 89 -68 97 -103 6 -23 4 -26 -14 -21 -13 3
-21 1 -21 -8 0 -19 -47 29 -91 94 -44 63 -37 72 29 38z m2325 -25 c-21 -24
-52 -72 -70 -106 l-32 -62 -4 49 c-2 36 -4 30 -5 -27 -2 -53 -5 -71 -12 -60
-14 22 -12 97 4 128 16 30 79 93 111 110 42 23 45 10 8 -32z m-1019 -44 l16
-43 -22 15 c-12 9 -32 16 -43 17 -19 0 -19 1 3 16 12 8 22 22 22 31 0 21 4 15
24 -36z m-1688 22 c-3 -9 -6 -24 -6 -35 0 -27 -13 -23 -33 10 -16 28 -16 30 0
34 36 9 45 7 39 -9z m2361 -21 c-3 -10 -5 -4 -5 12 0 17 2 24 5 18 2 -7 2 -21
0 -30z m459 -11 c-18 -16 -18 -16 -6 6 6 13 14 21 18 18 3 -4 -2 -14 -12 -24z
m368 -3 c22 -26 35 -59 23 -59 -2 0 -18 20 -36 45 -36 51 -27 61 13 14z
m-3749 -16 c-20 -46 -32 -61 -67 -79 -26 -14 -28 -13 -28 6 0 21 79 110 98
110 9 0 8 -10 -3 -37z m-810 -241 c-14 -14 -19 17 -18 116 0 166 17 186 21 23
1 -73 0 -136 -3 -139z m1299 252 c14 -14 14 -18 1 -45 -20 -38 -60 -42 -51 -4
5 18 2 27 -9 31 -27 11 -147 -25 -225 -67 -74 -39 -74 -39 -40 -9 54 48 153
92 223 100 34 4 67 8 74 9 6 0 19 -6 27 -15z m1366 -4 c0 -5 -4 -10 -10 -10
-5 0 -10 5 -10 10 0 6 5 10 10 10 6 0 10 -4 10 -10z m-1520 -50 c0 -26 -26
-58 -73 -90 -28 -19 -70 -51 -94 -70 -42 -35 -180 -90 -166 -67 4 7 17 29 30
50 22 35 22 37 4 28 -11 -6 -29 -23 -42 -38 l-22 -28 6 39 c4 22 13 47 22 55
17 17 75 20 141 7 40 -8 41 -7 62 28 12 20 43 50 69 66 50 32 63 36 63 20z
m3174 -40 c-15 -15 -68 -25 -60 -11 4 6 18 11 32 11 16 0 24 6 25 18 0 11 2
13 6 4 3 -8 1 -18 -3 -22z m-2985 -18 c0 -15 -4 -36 -9 -47 -6 -15 -9 -6 -9
33 -1 33 3 51 9 47 6 -3 10 -18 9 -33z m1301 26 c0 -4 -4 -8 -9 -8 -6 0 -12 4
-15 8 -3 5 1 9 9 9 8 0 15 -4 15 -9z m75 -29 c9 -17 15 -38 13 -47 -3 -12 -12
-5 -31 25 -31 49 -32 53 -12 53 8 0 22 -14 30 -31z m104 -76 c1 -18 -3 -33 -8
-33 -16 0 -22 34 -15 90 l8 55 7 -40 c4 -22 8 -55 8 -72z m368 -31 c30 -92 35
-231 10 -297 -15 -39 -15 -36 -10 75 5 112 4 118 -31 226 -20 61 -36 117 -36
125 0 26 41 -53 67 -129z m-2422 33 c-14 -50 -30 -101 -37 -114 l-13 -24 -6
29 c-6 27 -7 26 -9 -11 l-2 -40 -10 42 c-13 60 5 116 54 169 23 24 42 43 44
41 2 -1 -8 -43 -21 -92z m445 70 c0 -8 4 -15 8 -15 9 0 10 -9 12 -175 2 -93
-2 -124 -24 -197 -49 -164 -132 -335 -203 -416 l-31 -37 48 122 c84 211 141
395 154 503 l5 45 -15 -50 c-8 -27 -19 -63 -24 -80 -7 -25 -8 -22 -3 15 3 25
9 61 14 80 5 19 9 55 9 80 l0 45 -26 -39 c-52 -76 -93 -184 -134 -356 -56
-233 -87 -335 -117 -392 -25 -47 -79 -106 -87 -97 -3 3 17 56 44 119 27 63 61
160 75 215 15 55 35 123 45 150 10 28 33 97 50 155 34 111 63 176 113 250 54
81 87 109 87 75z m538 -19 c7 -33 -13 -37 -25 -5 -10 26 -10 30 5 27 9 -2 18
-12 20 -22z m880 -5 c32 -13 32 -14 16 -32 -23 -26 -28 -24 -47 17 -10 20 -14
34 -10 32 4 -2 23 -10 41 -17z m403 -8 c12 -15 12 -16 -4 -10 -10 4 -25 7 -33
7 -8 0 -14 5 -14 10 0 16 36 11 51 -7z m-1341 -22 c16 -30 12 -36 -10 -16 -21
19 -26 35 -10 35 5 0 14 -9 20 -19z m-607 -46 c-28 -41 -40 -52 -50 -44 -24
20 35 99 74 99 7 0 -3 -23 -24 -55z m3267 41 c0 -22 -29 -41 -42 -28 -8 8 -8
15 2 27 16 19 40 20 40 1z m-1447 -202 c31 -110 41 -161 33 -166 -7 -5 15
-109 72 -337 46 -181 82 -340 80 -353 -6 -30 -9 -22 -49 125 -17 65 -33 116
-35 114 -3 -2 7 -51 20 -108 35 -150 39 -169 29 -169 -14 0 -37 76 -99 330
-36 146 -60 226 -64 211 -4 -19 -11 -13 -44 46 -42 73 -205 243 -233 243 -9 0
-46 -29 -82 -63 -75 -73 -131 -108 -131 -82 0 18 18 36 123 116 65 50 83 60
105 54 14 -3 66 -47 115 -98 62 -63 82 -79 64 -52 -14 22 -28 62 -32 90 l-6
50 22 -35 c12 -19 39 -60 59 -91 44 -64 72 -127 64 -140 -6 -11 55 -203 63
-195 5 5 -20 108 -38 151 -7 17 -11 37 -10 46 6 55 -66 346 -91 367 -20 15
-164 26 -173 13 -3 -6 -11 -9 -16 -5 -12 7 -2 83 13 102 18 22 60 13 124 -28
35 -22 65 -40 68 -40 2 0 0 17 -5 38 -11 48 -11 61 1 41 5 -8 29 -87 53 -175z
m140 167 c25 -10 67 -48 67 -62 0 -3 -21 4 -47 17 -25 13 -57 24 -70 24 -24 0
-31 15 -10 23 19 8 34 8 60 -2z m-1390 -44 c-4 -6 -12 -3 -20 8 -20 28 -16 41
7 20 11 -10 17 -22 13 -28z m2467 -9 c0 -21 -3 -29 -10 -22 -5 5 -7 19 -4 32
9 31 14 27 14 -10z m190 -48 c24 -65 22 -92 -4 -42 -18 35 -37 114 -26 107 4
-2 18 -32 30 -65z m-2990 18 c0 -26 -2 -28 -20 -18 -11 6 -20 21 -20 34 0 19
4 23 20 19 14 -4 20 -14 20 -35z m-298 1 c16 -9 16 -13 -2 -63 -10 -30 -24
-64 -30 -76 l-12 -22 -18 27 c-27 41 -70 65 -117 65 -24 0 -43 4 -43 9 0 15
74 60 115 69 41 10 76 6 107 -9z m518 12 c0 -5 -9 -19 -20 -32 -21 -26 -27
-11 -10 22 11 19 30 26 30 10z m30 -36 c0 -25 -14 -40 -29 -30 -6 3 -6 17 1
35 11 34 28 31 28 -5z m1455 25 c3 -5 -1 -10 -9 -10 -9 0 -16 5 -16 10 0 6 4
10 9 10 6 0 13 -4 16 -10z m1204 -353 c5 -32 7 -66 3 -76 -4 -10 -31 -40 -60
-66 -30 -27 -60 -66 -69 -87 -26 -65 -25 -36 2 47 32 96 40 111 70 131 21 14
28 14 42 3 15 -12 16 -12 8 6 -24 59 -35 130 -35 231 0 185 14 200 22 24 4
-85 11 -181 17 -213z m-64 205 c7 -33 -2 -41 -24 -19 -11 10 -11 8 -2 -10 13
-26 15 -77 2 -53 -10 17 -41 162 -41 189 0 23 56 -69 65 -107z m-1600 87 c0
-8 -11 -15 -24 -17 -31 -5 -71 6 -71 19 0 6 9 8 20 4 11 -3 28 -2 37 4 22 13
38 9 38 -10z m-2115 -16 c0 -22 -2 -25 -10 -13 -13 20 -13 40 0 40 6 0 10 -12
10 -27z m664 -65 c-3 -51 -16 -124 -27 -163 l-22 -70 -3 79 c-2 44 2 101 7
128 12 52 37 118 45 118 3 0 3 -42 0 -92z m3615 62 c15 -22 15 -23 -6 -12 -11
6 -23 19 -27 28 -9 23 14 12 33 -16z m-1913 -16 c21 -49 10 -54 -31 -14 -42
40 -43 50 -9 50 19 0 28 -8 40 -36z m1615 -29 c9 -25 13 -45 8 -45 -5 0 -11
11 -15 25 -7 30 -24 33 -24 6 0 -11 -4 -23 -10 -26 -14 -9 -13 38 2 70 14 30
17 27 39 -30z m-1884 -9 c-51 -46 -116 -90 -122 -84 -10 9 25 78 39 78 8 0 33
9 57 20 63 28 70 24 26 -14z m2273 -61 c9 -11 3 -16 -32 -25 -24 -6 -50 -13
-59 -16 -13 -4 -20 9 -33 60 -9 36 -16 67 -16 70 0 8 127 -73 140 -89z m-4390
53 c23 -38 25 -62 9 -107 -11 -32 -11 -32 -26 -11 -11 16 -12 25 -4 33 16 16
14 60 -4 83 -17 23 -19 34 -5 34 6 0 19 -15 30 -32z m3925 -50 c13 -29 47 -79
75 -112 69 -80 106 -134 143 -214 29 -61 32 -75 30 -152 -1 -47 -9 -114 -17
-150 l-15 -65 7 85 c12 152 10 169 -46 282 -28 57 -76 133 -107 171 -53 64
-105 159 -105 192 0 26 9 16 35 -37z m-4346 -32 c0 -28 -2 -27 -15 14 -17 56
-17 60 1 36 8 -11 15 -34 14 -50z m4329 -301 c68 -212 107 -355 116 -430 5
-40 1 -31 -22 45 -16 52 -59 175 -96 273 -74 196 -94 272 -101 392 l-6 80 24
-85 c13 -47 52 -170 85 -275z m-940 255 c11 -32 10 -33 -3 -16 -8 11 -15 29
-15 40 0 25 4 19 18 -24z m730 -85 c0 -29 0 -29 -8 -5 -4 14 -8 48 -8 75 l1
50 8 -45 c4 -25 7 -58 7 -75z m-3751 90 c44 -31 65 -81 70 -168 l4 -82 -25 58
c-22 54 -50 99 -31 52 26 -64 55 -185 53 -215 -3 -35 -3 -35 -17 -11 -7 13
-26 69 -42 125 -40 140 -65 185 -116 211 -23 11 -42 23 -43 27 -1 20 119 23
147 3z m2278 -25 c32 -47 44 -47 20 0 -9 18 -14 34 -11 37 2 3 17 -19 32 -49
14 -29 41 -73 59 -98 40 -56 78 -130 71 -138 -3 -3 -6 0 -6 6 0 6 -10 17 -22
23 -21 11 -21 9 3 -17 56 -60 179 -268 179 -302 0 -3 -25 30 -55 74 -51 73
-187 235 -192 230 -7 -7 113 -216 186 -325 46 -67 80 -125 78 -128 -20 -20
-182 188 -247 317 -39 78 -104 266 -115 335 -4 22 -9 48 -12 58 -7 27 2 20 32
-23z m1211 -7 c-3 -7 -1 -13 3 -13 16 0 31 -62 31 -126 0 -44 9 -92 30 -154
35 -105 34 -101 15 -94 -20 8 -50 61 -94 168 -53 127 -57 154 -30 217 21 47
24 50 36 33 7 -10 11 -24 9 -31z m-1079 -42 c57 -78 101 -167 134 -273 15 -49
26 -88 24 -88 -4 0 -58 95 -117 205 -110 203 -129 278 -41 156z m-1863 -23
c-8 -35 -21 -88 -30 -118 -18 -62 -105 -272 -111 -266 -8 7 45 292 61 326 l16
35 -5 -50 -4 -50 18 60 c37 124 80 172 55 63z m1671 16 c39 -42 31 -59 -13
-28 -38 27 -36 8 2 -21 20 -15 36 -32 36 -37 0 -6 -7 -5 -15 2 -19 16 -19 2 1
-45 27 -66 9 -61 -37 10 -53 83 -61 102 -54 126 9 28 52 24 80 -7z m-1728 -26
c-3 -8 -6 -5 -6 6 -1 11 2 17 5 13 3 -3 4 -12 1 -19z m1605 -37 c3 -39 3 -39
-25 -34 -19 4 -34 0 -47 -12 -11 -10 -23 -15 -27 -11 -7 6 75 96 88 96 4 0 9
-18 11 -39z m-2246 -15 c-7 -42 -6 -44 14 -39 42 11 75 -39 94 -144 6 -39 -9
-45 -18 -8 -6 24 -64 125 -71 125 -2 0 -17 -24 -34 -52 -16 -29 -48 -71 -70
-92 -53 -52 -62 -32 -26 55 28 65 103 199 112 199 3 0 2 -20 -1 -44z m94 -16
c0 -5 -4 -10 -9 -10 -6 0 -13 5 -16 10 -3 6 1 10 9 10 9 0 16 -4 16 -10z
m3022 -62 c-9 -20 -11 -18 -11 22 0 40 2 42 11 23 8 -17 8 -29 0 -45z m-842 1
c53 -28 100 -63 100 -74 0 -2 -15 4 -32 14 -18 11 -58 29 -88 42 -30 12 -62
28 -70 36 -28 26 29 14 90 -18z m-2153 -76 c-2 -21 -4 -6 -4 32 0 39 2 55 4
38 2 -18 2 -50 0 -70z m3911 58 c7 -21 12 -41 12 -43 0 -3 -27 -26 -59 -52
-33 -25 -77 -73 -99 -105 -71 -107 -82 -34 -14 92 24 44 123 147 141 147 4 0
13 -17 19 -39z m-1941 -38 c-13 -26 -32 -72 -42 -101 -9 -29 -19 -51 -22 -48
-7 6 13 67 50 150 17 38 33 64 35 58 2 -6 -8 -32 -21 -59z m182 -23 c150 -106
300 -268 337 -365 42 -110 -49 -52 -141 90 -83 128 -127 177 -239 270 -58 48
-106 89 -106 91 0 9 77 -36 149 -86z m931 51 c0 -5 -9 -11 -20 -14 -10 -3 -33
-26 -50 -53 l-30 -48 0 36 c0 48 32 88 71 88 16 0 29 -4 29 -9z m50 -50 c8
-15 1 -23 -39 -50 -31 -19 -56 -46 -69 -71 l-19 -40 -6 37 c-5 30 -1 43 23 76
31 43 78 79 92 71 4 -3 12 -13 18 -23z m-813 -53 l12 -33 -19 24 c-21 24 -26
41 -12 41 4 0 13 -15 19 -32z m1602 -168 c-5 -64 -15 -127 -28 -160 l-20 -55
0 41 c-1 59 17 239 31 304 l12 55 6 -40 c3 -22 2 -87 -1 -145z m-1762 144 c22
-20 24 -24 8 -19 -11 4 -45 11 -75 17 -77 15 -85 28 -18 28 47 0 62 -4 85 -26z
m1383 2 c0 -3 -4 -8 -10 -11 -5 -3 -10 -1 -10 4 0 6 5 11 10 11 6 0 10 -2 10
-4z m-2940 -55 c-20 -30 -40 -44 -23 -18 27 42 38 56 41 52 2 -2 -6 -18 -18
-34z m3224 7 c-18 -35 -15 -75 11 -168 16 -58 21 -185 6 -176 -4 3 -11 30 -15
59 -3 30 -16 85 -27 123 -28 88 -26 117 6 160 33 43 41 44 19 2z m-1684 -3
c17 -9 30 -17 30 -19 0 -3 3 -11 6 -20 9 -25 -7 -19 -55 19 -46 37 -35 48 19
20z m1450 -50 c7 -8 21 -15 31 -15 25 0 70 -20 97 -44 33 -29 27 -41 -9 -15
-31 22 -31 22 -57 2 -36 -27 -51 -75 -40 -127 5 -22 11 -75 13 -116 l4 -75
-20 75 c-10 41 -22 112 -26 158 -6 89 -16 99 -44 44 -17 -32 -17 -32 -21 -7
-3 15 -1 22 5 18 6 -4 8 10 5 39 -3 25 -1 53 4 62 11 20 42 21 58 1z m-3060
-19 c0 -2 -27 -22 -60 -45 -33 -23 -58 -36 -55 -29 9 22 115 91 115 74z m1400
-63 c0 -7 -6 -13 -14 -13 -8 0 -21 -3 -30 -6 -17 -7 -21 20 -9 65 l6 24 24
-29 c12 -16 23 -35 23 -41z m1206 -57 c8 -28 13 -87 12 -131 -1 -44 -3 -62 -5
-40 -3 35 -23 156 -39 235 -9 45 17 -6 32 -64z m-2888 -24 c-2 -34 -11 -68
-22 -82 l-18 -25 6 25 c17 71 17 74 -3 35 l-21 -40 5 44 c6 49 30 101 46 101
8 0 10 -20 7 -58z m2114 -220 c11 -13 8 -14 -22 -8 -43 9 -84 37 -88 61 -3 15
4 13 47 -11 28 -15 57 -34 63 -42z"/>
<path d="M2199 3359 c-13 -12 -43 -34 -66 -51 -49 -33 -58 -48 -13 -22 33 20
118 93 109 94 -3 0 -17 -9 -30 -21z"/>
<path d="M2035 3234 c-31 -27 -33 -31 -9 -15 28 18 62 51 53 51 -2 0 -22 -16
-44 -36z"/>
<path d="M3480 3516 c0 -2 8 -10 18 -17 15 -13 16 -12 3 4 -13 16 -21 21 -21
13z"/>
<path d="M3564 3455 c22 -13 44 -21 49 -18 11 7 -50 42 -73 42 -8 0 3 -10 24
-24z"/>
<path d="M3790 3313 c0 -16 290 -185 307 -179 20 8 32 -1 -132 94 -152 88
-175 99 -175 85z"/>
<path d="M4422 2978 c22 -33 41 -36 27 -4 -7 14 -19 26 -27 26 -13 0 -13 -3 0
-22z"/>
<path d="M2349 3252 c-7 -11 -18 -18 -24 -15 -8 2 -14 -12 -18 -39 -3 -24 -9
-52 -13 -61 -3 -9 -2 -17 3 -17 10 0 75 141 69 148 -3 2 -10 -5 -17 -16z"/>
<path d="M2236 3186 c-23 -33 -24 -37 -7 -21 23 20 45 54 39 60 -2 1 -16 -16
-32 -39z"/>
<path d="M2094 2998 c-22 -24 -49 -54 -59 -67 -20 -24 -20 -24 0 -13 24 12 66
56 90 95 24 38 16 34 -31 -15z"/>
<path d="M2156 2859 c-3 -17 -6 -41 -5 -53 0 -18 3 -16 14 9 16 34 19 75 6 75
-5 0 -11 -14 -15 -31z"/>
<path d="M1634 2107 c-33 -24 -68 -54 -79 -67 l-20 -23 31 18 c34 19 143 114
133 115 -4 0 -33 -20 -65 -43z"/>
<path d="M2609 3277 c-18 -24 -34 -67 -25 -67 7 0 49 81 44 85 -2 2 -10 -7
-19 -18z"/>
<path d="M2206 2660 c-28 -34 -42 -73 -32 -89 4 -6 -14 -51 -39 -101 -52 -103
-56 -139 -7 -64 44 70 79 157 65 161 -15 5 -2 42 28 85 29 40 18 46 -15 8z"/>
<path d="M2241 2565 c-10 -24 -10 -41 -1 -82 6 -29 14 -53 18 -53 6 0 5 77 -1
140 -3 25 -3 25 -16 -5z"/>
<path d="M2134 2305 c-33 -31 -50 -52 -39 -46 32 16 111 88 104 96 -4 3 -33
-19 -65 -50z"/>
<path d="M2196 2055 c2 -5 24 -61 49 -123 44 -109 57 -173 21 -104 -24 47 -30
34 -9 -21 16 -44 16 -48 0 -83 -35 -73 -9 -42 50 58 58 101 90 166 82 171 -2
2 -23 18 -46 35 l-41 32 19 -50 c27 -71 23 -93 -7 -40 -34 60 -94 131 -104
125 -5 -3 -10 -2 -13 2 -2 5 -2 4 -1 -2z m82 -110 c17 -33 33 -74 36 -90 7
-32 -4 -13 -71 130 -39 83 -9 49 35 -40z"/>
<path d="M2223 1845 c0 -22 2 -30 4 -17 2 12 2 30 0 40 -3 9 -5 -1 -4 -23z"/>
<path d="M3460 3096 c0 -7 6 -19 14 -25 19 -16 73 16 57 32 -7 7 -15 6 -26 -3
-10 -8 -15 -9 -15 -1 0 6 -7 11 -15 11 -8 0 -15 -6 -15 -14z"/>
<path d="M3562 3025 c12 -27 28 -33 28 -10 0 8 -9 19 -20 25 -18 10 -19 9 -8
-15z"/>
<path d="M4382 2710 c2 -6 40 -26 86 -45 100 -41 98 -25 -4 21 -79 37 -87 39
-82 24z"/>
<path d="M4851 2673 c-31 -4 -32 -5 -14 -18 23 -16 63 -9 63 11 0 8 -3 13 -7
12 -5 0 -23 -3 -42 -5z"/>
<path d="M1081 2435 c-12 -31 -21 -61 -20 -68 0 -7 11 17 25 52 14 35 23 66
20 68 -2 2 -13 -21 -25 -52z"/>
<path d="M3820 2218 c0 -4 24 -69 54 -145 29 -76 56 -146 59 -155 11 -30 30
-21 24 10 -10 49 -137 318 -137 290z"/>
<path d="M931 2354 c0 -11 3 -14 6 -6 3 7 2 16 -1 19 -3 4 -6 -2 -5 -13z"/>
<path d="M794 2138 c-40 -46 -50 -64 -20 -38 25 23 52 60 43 60 -2 0 -12 -10
-23 -22z"/>
<path d="M4410 2185 c-7 -9 -11 -18 -8 -20 3 -3 11 1 18 10 7 9 11 18 8 20 -3
3 -11 -1 -18 -10z"/>
<path d="M827 1353 c-2 -15 -12 -64 -20 -108 -21 -109 -30 -243 -21 -301 8
-48 9 -46 15 41 4 58 19 135 43 219 20 70 35 133 33 139 -1 5 -16 -31 -31 -82
-16 -51 -31 -90 -33 -87 -3 3 2 48 12 101 9 53 15 98 12 101 -2 3 -7 -8 -10
-23z"/>
<path d="M846 861 c3 -46 10 -93 14 -105 11 -26 2 102 -11 154 -6 24 -7 8 -3
-49z"/>
<path d="M721 830 c0 -8 4 -24 9 -35 5 -13 9 -14 9 -5 0 8 -4 24 -9 35 -5 13
-9 14 -9 5z"/>
<path d="M4272 1978 c-16 -21 -44 -80 -39 -84 2 -2 16 18 30 46 26 49 29 62 9
38z"/>
<path d="M4208 1751 c-5 -18 -7 -59 -7 -90 l1 -56 10 55 c5 30 7 71 6 90 l-3
35 -7 -34z"/>
<path d="M306 1541 c9 -19 25 -58 35 -85 9 -28 18 -46 18 -39 1 19 -37 117
-54 139 -13 15 -13 12 1 -15z"/>
<path d="M647 1366 c-5 -43 -6 -80 -3 -83 7 -7 18 98 14 132 -2 17 -7 -5 -11
-49z"/>
<path d="M2920 1230 c14 -4 36 -8 50 -8 l25 0 -25 8 c-14 4 -36 8 -50 8 l-25
0 25 -8z"/>
<path d="M1140 1150 c30 -4 64 -10 75 -15 l20 -8 -20 16 c-13 11 -38 16 -75
15 l-55 -1 55 -7z"/>
<path d="M4071 855 c-1 -11 -4 -31 -6 -45 l-6 -25 11 25 c6 13 9 33 7 45 -4
19 -4 19 -6 0z"/>
<path d="M4120 400 c-8 -5 -11 -12 -7 -16 4 -4 15 0 24 9 18 18 8 23 -17 7z"/>
<path d="M335 4158 c-11 -6 -30 -20 -43 -32 -25 -22 -29 -23 -189 -32 -79 -5
-103 -9 -103 -20 0 -11 20 -14 95 -14 57 0 95 4 95 10 0 6 25 10 56 10 49 0
58 3 79 29 29 34 74 45 125 31 40 -11 87 -51 101 -87 8 -23 12 -23 166 -23
120 0 154 3 145 12 -7 7 -46 12 -96 13 -46 0 -90 6 -98 11 -23 19 -47 24 -70
15 -17 -6 -27 -2 -46 21 -50 59 -160 88 -217 56z m300 -98 c4 -6 -6 -10 -22
-10 -22 0 -25 2 -13 10 19 12 27 12 35 0z"/>
<path d="M1156 4120 c-60 -5 -111 -12 -114 -15 -3 -3 147 -4 334 -4 208 1 322
5 294 10 -73 13 -396 18 -514 9z"/>
<path d="M1090 3713 c-274 -14 -576 -46 -730 -75 -94 -18 -133 -24 -192 -30
-10 -1 -18 -5 -18 -9 0 -3 -34 -12 -75 -19 -50 -9 -75 -17 -75 -26 0 -18 -14
-19 189 21 239 47 545 93 666 99 166 10 334 29 329 38 -3 4 -13 7 -22 6 -9 -1
-42 -3 -72 -5z"/>
<path d="M360 3703 c-157 -12 -346 -35 -354 -43 -19 -19 3 -22 71 -11 108 17
132 20 243 31 58 6 139 14 180 19 l75 8 -85 0 c-47 0 -105 -2 -130 -4z"/>
<path d="M4621 3686 c8 -9 490 -48 497 -41 11 11 -8 14 -143 24 -249 18 -360
23 -354 17z"/>
<path d="M3920 3660 c20 -5 143 -21 275 -35 132 -14 323 -37 425 -50 102 -14
241 -32 310 -40 69 -8 140 -17 158 -20 24 -4 32 -2 32 8 0 15 -21 21 -110 31
-25 3 -110 15 -190 26 -226 31 -487 59 -695 75 -214 17 -260 18 -205 5z"/>
<path d="M150 3640 c-14 -5 -51 -11 -82 -15 -32 -3 -60 -11 -63 -16 -8 -11 2
-11 62 0 26 5 65 12 86 16 20 3 37 10 37 15 0 12 -6 11 -40 0z"/>
<path d="M1115 3624 c-159 -24 -338 -61 -301 -63 11 -1 45 4 75 10 31 5 136
23 235 39 98 16 181 32 184 35 8 8 -21 5 -193 -21z"/>
<path d="M200 3636 c0 -2 7 -6 15 -10 8 -3 15 -1 15 4 0 6 -7 10 -15 10 -8 0
-15 -2 -15 -4z"/>
<path d="M3915 3400 c-3 -5 -2 -10 4 -10 5 0 13 5 16 10 3 6 2 10 -4 10 -5 0
-13 -4 -16 -10z"/>
<path d="M3970 3383 c0 -5 18 -16 40 -25 49 -20 53 -8 5 15 -40 19 -45 20 -45
10z"/>
<path d="M4101 3326 c18 -17 69 -29 69 -17 0 5 -19 13 -41 19 -35 9 -39 8 -28
-2z"/>
<path d="M4104 3296 c35 -29 388 -174 853 -352 154 -58 163 -61 163 -41 0 7
-61 33 -143 61 -221 75 -447 168 -447 183 0 16 -17 18 -22 2 -2 -7 -47 7 -115
36 -111 46 -156 75 -117 75 14 0 15 3 6 12 -9 9 -15 8 -25 -6 -12 -17 -16 -16
-78 9 -89 37 -97 39 -75 21z"/>
<path d="M135 3275 c33 -27 55 -32 55 -12 0 7 -15 18 -33 25 -49 18 -55 14
-22 -13z"/>
<path d="M5 3259 c-11 -17 0 -20 21 -4 17 13 17 14 2 15 -9 0 -20 -5 -23 -11z"/>
<path d="M3140 2852 c0 -5 10 -17 22 -28 l21 -19 -18 28 c-18 28 -25 33 -25
19z"/>
<path d="M2888 2783 c3 -36 13 -57 38 -86 19 -20 34 -35 34 -33 0 9 -63 152
-70 159 -4 5 -5 -13 -2 -40z"/>
<path d="M2425 2738 c8 -44 44 -152 50 -146 6 6 -40 188 -48 188 -5 0 -6 -19
-2 -42z"/>
<path d="M3209 2518 c-6 -12 -23 -43 -36 -68 -29 -53 -3 -24 34 38 14 24 23
45 20 48 -3 3 -11 -5 -18 -18z"/>
<path d="M5020 2214 c0 -4 10 -23 23 -43 l22 -36 3 28 c4 31 -12 57 -34 57 -8
0 -14 -3 -14 -6z"/>
<path d="M5101 2133 c1 -21 5 -51 9 -68 6 -23 8 -15 9 38 1 39 -3 67 -9 67 -5
0 -9 -17 -9 -37z"/>
<path d="M2518 1862 c-31 -34 -80 -102 -103 -142 -18 -31 25 12 74 74 46 58
76 106 68 106 -3 0 -20 -17 -39 -38z"/>
<path d="M5101 1658 c-15 -48 -41 -208 -40 -248 0 -19 11 26 24 100 13 74 27
145 30 158 8 34 -2 26 -14 -10z"/>
<path d="M3 1245 c3 -11 17 -51 31 -88 27 -69 20 -83 -11 -24 -9 18 -18 27
-20 20 -3 -7 10 -33 27 -58 28 -41 60 -114 60 -137 0 -6 -20 12 -45 39 -66 71
-59 27 9 -56 29 -36 72 -93 95 -125 22 -33 41 -54 41 -48 0 24 -120 352 -155
422 -20 41 -35 66 -32 55z"/>
<path d="M3162 1128 c46 -128 62 -168 65 -165 5 5 -57 177 -64 177 -3 0 -3 -6
-1 -12z"/>
<path d="M10 926 c0 -2 8 -10 18 -17 15 -13 16 -12 3 4 -13 16 -21 21 -21 13z"/>
<path d="M5074 697 c-50 -65 -87 -128 -79 -135 3 -4 9 -2 13 4 4 6 31 48 61
93 30 45 52 83 49 86 -2 2 -22 -19 -44 -48z"/>
<path d="M5078 622 c-63 -66 -164 -269 -192 -382 -7 -27 -8 -29 80 155 29 61
73 141 98 179 50 75 55 92 14 48z"/>
<path d="M520 461 c-11 -8 -1 -11 40 -11 35 0 64 -6 78 -16 28 -19 42 -10 19
13 -19 19 -115 29 -137 14z"/>
<path d="M2740 250 c35 -17 71 -37 79 -43 12 -9 13 -9 7 0 -10 18 -86 61 -121
68 -17 4 -2 -7 35 -25z"/>
<path d="M5069 175 c-50 -86 -89 -161 -89 -170 0 -3 9 -5 20 -5 11 0 20 5 20
11 0 6 23 56 51 111 63 125 61 163 -2 53z"/>
<path d="M1 165 c-1 -40 7 -63 34 -110 19 -33 35 -55 35 -50 0 6 -15 56 -34
110 l-34 100 -1 -50z"/>
<path d="M4523 59 c-13 -35 -17 -59 -11 -57 12 4 41 93 36 109 -2 5 -13 -18
-25 -52z"/>
<path d="M5066 60 c-20 -22 -36 -45 -36 -50 0 -6 20 -10 45 -10 l45 0 0 50 c0
28 -4 50 -9 50 -5 0 -25 -18 -45 -40z"/>
<path d="M4544 35 c-9 -28 -8 -35 2 -35 9 0 14 12 14 35 0 19 -1 35 -3 35 -1
0 -7 -16 -13 -35z"/>
<path d="M508 3 c12 -2 30 -2 40 0 9 3 -1 5 -23 4 -22 0 -30 -2 -17 -4z"/>
</g>
</svg>